<svg version="1.1" viewBox="0.0 0.0 1058.3333333333333 595.3333333333334" fill="none" stroke="none" stroke-linecap="square" stroke-miterlimit="10" xmlns:xlink="http://www.w3.org/1999/xlink" xmlns="http://www.w3.org/2000/svg"><clipPath id="g146a6280070_0_130.0"><path d="m0 0l1058.3334 0l0 595.3333l-1058.3334 0l0 -595.3333z" clip-rule="nonzero"/></clipPath><g clip-path="url(#g146a6280070_0_130.0)"><path fill="#323232" d="m0 0l1058.3334 0l0 595.3333l-1058.3334 0z" fill-rule="evenodd"/><path fill="#000000" fill-opacity="0.0" d="m0 39.527557l1058.3307 0l0 56.692917l-1058.3307 0z" fill-rule="evenodd"/><path fill="#ffffff" d="m238.29675 79.36755l-7.09375 -26.71875l3.625 0l4.0625 17.515625q0.65625 2.75 1.140625 5.46875q1.015625 -4.28125 1.203125 -4.9375l5.078125 -18.046875l4.265625 0l3.828125 13.515625q1.4375 5.03125 2.078125 9.46875q0.515625 -2.53125 1.328125 -5.8125l4.203125 -17.171875l3.546875 0l-7.328125 26.71875l-3.40625 0l-5.625 -20.359375q-0.71875 -2.546875 -0.84375 -3.140625q-0.421875 1.84375 -0.78125 3.140625l-5.671875 20.359375l-3.609375 0zm42.72946 -6.234375l3.375 0.421875q-0.796875 2.96875 -2.96875 4.609375q-2.15625 1.640625 -5.53125 1.640625q-4.25 0 -6.75 -2.609375q-2.484375 -2.625 -2.484375 -7.34375q0 -4.890625 2.515625 -7.578125q2.515625 -2.703125 6.53125 -2.703125q3.890625 0 6.34375 2.640625q2.453125 2.640625 2.453125 7.4375q0 0.296875 -0.015625 0.875l-14.4375 0q0.1875 3.1875 1.8125 4.890625q1.625 1.6875 4.046875 1.6875q1.796875 0 3.078125 -0.9375q1.28125 -0.953125 2.03125 -3.03125zm-10.78125 -5.296875l10.8125 0q-0.21875 -2.453125 -1.234375 -3.671875q-1.578125 -1.890625 -4.078125 -1.890625q-2.25 0 -3.796875 1.515625q-1.53125 1.5 -1.703125 4.046875zm21.307007 11.53125l-3.046875 0l0 -26.71875l3.28125 0l0 9.53125q2.078125 -2.609375 5.3125 -2.609375q1.78125 0 3.375 0.71875q1.59375 0.71875 2.625 2.03125q1.03125 1.296875 1.609375 3.140625q0.59375 1.84375 0.59375 3.9375q0 4.96875 -2.46875 7.6875q-2.453125 2.71875 -5.90625 2.71875q-3.421875 0 -5.375 -2.859375l0 2.421875zm-0.03125 -9.828125q0 3.484375 0.9375 5.03125q1.5625 2.53125 4.203125 2.53125q2.140625 0 3.703125 -1.859375q1.578125 -1.875 1.578125 -5.578125q0 -3.78125 -1.5 -5.578125q-1.5 -1.8125 -3.640625 -1.8125q-2.15625 0 -3.71875 1.875q-1.5625 1.859375 -1.5625 5.390625zm27.349823 1.25l3.34375 -0.296875q0.234375 2.0 1.09375 3.296875q0.875 1.28125 2.6875 2.078125q1.828125 0.78125 4.109375 0.78125q2.015625 0 3.5625 -0.59375q1.5625 -0.609375 2.3125 -1.65625q0.75 -1.046875 0.75 -2.28125q0 -1.265625 -0.734375 -2.203125q-0.71875 -0.9375 -2.390625 -1.578125q-1.078125 -0.421875 -4.765625 -1.296875q-3.671875 -0.890625 -5.15625 -1.671875q-1.90625 -1.0 -2.84375 -2.484375q-0.9375 -1.484375 -0.9375 -3.328125q0 -2.015625 1.140625 -3.78125q1.15625 -1.765625 3.359375 -2.671875q2.203125 -0.90625 4.90625 -0.90625q2.96875 0 5.234375 0.953125q2.265625 0.953125 3.484375 2.8125q1.21875 1.859375 1.3125 4.21875l-3.390625 0.25q-0.265625 -2.53125 -1.84375 -3.828125q-1.578125 -1.296875 -4.65625 -1.296875q-3.203125 0 -4.671875 1.1875q-1.46875 1.171875 -1.46875 2.828125q0 1.4375 1.03125 2.359375q1.03125 0.9375 5.328125 1.921875q4.3125 0.96875 5.921875 1.6875q2.328125 1.078125 3.4375 2.734375q1.125 1.640625 1.125 3.796875q0 2.140625 -1.234375 4.03125q-1.21875 1.875 -3.5 2.921875q-2.28125 1.046875 -5.15625 1.046875q-3.625 0 -6.078125 -1.046875q-2.453125 -1.0625 -3.84375 -3.1875q-1.390625 -2.125 -1.46875 -4.796875zm38.319458 1.484375l3.21875 0.421875q-0.515625 3.34375 -2.703125 5.234375q-2.171875 1.875 -5.34375 1.875q-3.984375 0 -6.40625 -2.59375q-2.40625 -2.59375 -2.40625 -7.453125q0 -3.125 1.03125 -5.46875q1.046875 -2.359375 3.171875 -3.53125q2.125 -1.1875 4.625 -1.1875q3.15625 0 5.15625 1.59375q2.0 1.59375 2.578125 4.53125l-3.203125 0.5q-0.453125 -1.953125 -1.609375 -2.9375q-1.15625 -0.984375 -2.796875 -0.984375q-2.484375 0 -4.03125 1.78125q-1.546875 1.765625 -1.546875 5.609375q0 3.90625 1.484375 5.671875q1.5 1.765625 3.90625 1.765625q1.9375 0 3.234375 -1.171875q1.296875 -1.1875 1.640625 -3.65625zm5.9921875 7.09375l0 -19.359375l2.953125 0l0 2.9375q1.125 -2.0625 2.078125 -2.71875q0.96875 -0.65625 2.109375 -0.65625q1.671875 0 3.375 1.0625l-1.125 3.046875q-1.203125 -0.71875 -2.40625 -0.71875q-1.078125 0 -1.9375 0.65625q-0.859375 0.640625 -1.21875 1.78125q-0.546875 1.75 -0.546875 3.828125l0 10.140625l-3.28125 0zm25.102417 -2.390625q-1.828125 1.546875 -3.515625 2.1875q-1.6875 0.640625 -3.609375 0.640625q-3.1875 0 -4.90625 -1.546875q-1.71875 -1.5625 -1.71875 -4.0q0 -1.421875 0.640625 -2.59375q0.65625 -1.171875 1.703125 -1.875q1.046875 -0.71875 2.359375 -1.078125q0.96875 -0.265625 2.921875 -0.5q3.96875 -0.46875 5.84375 -1.125q0.03125 -0.671875 0.03125 -0.859375q0 -2.0 -0.9375 -2.828125q-1.25 -1.109375 -3.734375 -1.109375q-2.3125 0 -3.421875 0.8125q-1.09375 0.8125 -1.625 2.875l-3.21875 -0.4375q0.4375 -2.0625 1.4375 -3.328125q1.015625 -1.265625 2.90625 -1.953125q1.890625 -0.6875 4.390625 -0.6875q2.484375 0 4.03125 0.59375q1.546875 0.578125 2.28125 1.46875q0.734375 0.875 1.015625 2.21875q0.171875 0.84375 0.171875 3.03125l0 4.375q0 4.578125 0.203125 5.796875q0.21875 1.203125 0.828125 2.3125l-3.421875 0q-0.515625 -1.015625 -0.65625 -2.390625zm-0.28125 -7.328125q-1.78125 0.734375 -5.359375 1.25q-2.015625 0.28125 -2.859375 0.65625q-0.828125 0.359375 -1.296875 1.0625q-0.453125 0.703125 -0.453125 1.5625q0 1.3125 0.984375 2.1875q1.0 0.875 2.921875 0.875q1.890625 0 3.359375 -0.828125q1.484375 -0.84375 2.1875 -2.28125q0.515625 -1.109375 0.515625 -3.28125l0 -1.203125zm8.400757 17.140625l0 -26.78125l3.0 0l0 2.515625q1.046875 -1.46875 2.375 -2.203125q1.34375 -0.75 3.234375 -0.75q2.484375 0 4.375 1.28125q1.890625 1.265625 2.859375 3.59375q0.96875 2.328125 0.96875 5.09375q0 2.96875 -1.0625 5.359375q-1.0625 2.375 -3.109375 3.640625q-2.03125 1.265625 -4.265625 1.265625q-1.640625 0 -2.953125 -0.6875q-1.296875 -0.703125 -2.140625 -1.75l0 9.421875l-3.28125 0zm2.984375 -16.984375q0 3.734375 1.5 5.515625q1.515625 1.78125 3.671875 1.78125q2.1875 0 3.734375 -1.84375q1.5625 -1.84375 1.5625 -5.734375q0 -3.703125 -1.515625 -5.53125q-1.515625 -1.84375 -3.640625 -1.84375q-2.09375 0 -3.703125 1.953125q-1.609375 1.953125 -1.609375 5.703125zm17.807007 -13.390625l0 -3.765625l3.28125 0l0 3.765625l-3.28125 0zm0 22.953125l0 -19.359375l3.28125 0l0 19.359375l-3.28125 0zm8.261902 0l0 -19.359375l2.953125 0l0 2.75q2.140625 -3.1875 6.171875 -3.1875q1.75 0 3.21875 0.640625q1.46875 0.625 2.1875 1.640625q0.734375 1.015625 1.03125 2.421875q0.171875 0.90625 0.171875 3.1875l0 11.90625l-3.28125 0l0 -11.78125q0 -2.0 -0.390625 -2.984375q-0.375 -1.0 -1.359375 -1.59375q-0.96875 -0.59375 -2.28125 -0.59375q-2.09375 0 -3.625 1.328125q-1.515625 1.328125 -1.515625 5.046875l0 10.578125l-3.28125 0zm20.166382 1.609375l3.1875 0.46875q0.203125 1.46875 1.109375 2.15625q1.21875 0.90625 3.34375 0.90625q2.28125 0 3.515625 -0.921875q1.234375 -0.90625 1.671875 -2.546875q0.265625 -1.0 0.234375 -4.203125q-2.140625 2.53125 -5.359375 2.53125q-3.984375 0 -6.171875 -2.875q-2.1875 -2.890625 -2.1875 -6.90625q0 -2.78125 1.0 -5.125q1.0 -2.34375 2.90625 -3.609375q1.90625 -1.28125 4.484375 -1.28125q3.421875 0 5.640625 2.765625l0 -2.328125l3.03125 0l0 16.734375q0 4.515625 -0.921875 6.40625q-0.921875 1.890625 -2.921875 2.984375q-1.984375 1.09375 -4.90625 1.09375q-3.46875 0 -5.609375 -1.5625q-2.125 -1.5625 -2.046875 -4.6875zm2.71875 -11.640625q0 3.8125 1.5 5.5625q1.515625 1.75 3.796875 1.75q2.265625 0 3.796875 -1.734375q1.53125 -1.75 1.53125 -5.46875q0 -3.546875 -1.578125 -5.34375q-1.578125 -1.8125 -3.796875 -1.8125q-2.1875 0 -3.71875 1.78125q-1.53125 1.765625 -1.53125 5.265625zm27.740448 2.015625l0 -3.296875l10.078125 0l0 3.296875l-10.078125 0zm24.489044 8.015625l0 -26.71875l10.078125 0q2.671875 0 4.078125 0.25q1.953125 0.328125 3.28125 1.25q1.34375 0.921875 2.15625 2.578125q0.8125 1.65625 0.8125 3.65625q0 3.40625 -2.171875 5.765625q-2.171875 2.359375 -7.84375 2.359375l-6.84375 0l0 10.859375l-3.546875 0zm3.546875 -14.015625l6.90625 0q3.421875 0 4.859375 -1.265625q1.4375 -1.28125 1.4375 -3.59375q0 -1.6875 -0.84375 -2.875q-0.84375 -1.203125 -2.234375 -1.578125q-0.890625 -0.234375 -3.296875 -0.234375l-6.828125 0l0 9.546875zm20.897583 14.015625l0 -19.359375l2.953125 0l0 2.9375q1.125 -2.0625 2.078125 -2.71875q0.96875 -0.65625 2.109375 -0.65625q1.671875 0 3.375 1.0625l-1.125 3.046875q-1.203125 -0.71875 -2.40625 -0.71875q-1.078125 0 -1.9375 0.65625q-0.859375 0.640625 -1.21875 1.78125q-0.546875 1.75 -0.546875 3.828125l0 10.140625l-3.28125 0zm12.493042 -22.953125l0 -3.765625l3.28125 0l0 3.765625l-3.28125 0zm0 22.953125l0 -19.359375l3.28125 0l0 19.359375l-3.28125 0zm8.261841 0l0 -19.359375l2.953125 0l0 2.75q2.140625 -3.1875 6.171875 -3.1875q1.75 0 3.21875 0.640625q1.46875 0.625 2.1875 1.640625q0.734375 1.015625 1.03125 2.421875q0.171875 0.90625 0.171875 3.1875l0 11.90625l-3.28125 0l0 -11.78125q0 -2.0 -0.390625 -2.984375q-0.375 -1.0 -1.359375 -1.59375q-0.96875 -0.59375 -2.28125 -0.59375q-2.09375 0 -3.625 1.328125q-1.515625 1.328125 -1.515625 5.046875l0 10.578125l-3.28125 0zm33.400757 -7.09375l3.21875 0.421875q-0.515625 3.34375 -2.703125 5.234375q-2.171875 1.875 -5.34375 1.875q-3.984375 0 -6.40625 -2.59375q-2.40625 -2.59375 -2.40625 -7.453125q0 -3.125 1.03125 -5.46875q1.046875 -2.359375 3.171875 -3.53125q2.125 -1.1875 4.625 -1.1875q3.15625 0 5.15625 1.59375q2.0 1.59375 2.578125 4.53125l-3.203125 0.5q-0.453125 -1.953125 -1.609375 -2.9375q-1.15625 -0.984375 -2.796875 -0.984375q-2.484375 0 -4.03125 1.78125q-1.546875 1.765625 -1.546875 5.609375q0 3.90625 1.484375 5.671875q1.5 1.765625 3.90625 1.765625q1.9375 0 3.234375 -1.171875q1.296875 -1.1875 1.640625 -3.65625zm6.0546875 -15.859375l0 -3.765625l3.28125 0l0 3.765625l-3.28125 0zm0 22.953125l0 -19.359375l3.28125 0l0 19.359375l-3.28125 0zm8.261902 7.421875l0 -26.78125l3.0 0l0 2.515625q1.046875 -1.46875 2.375 -2.203125q1.34375 -0.75 3.234375 -0.75q2.484375 0 4.375 1.28125q1.890625 1.265625 2.859375 3.59375q0.96875 2.328125 0.96875 5.09375q0 2.96875 -1.0625 5.359375q-1.0625 2.375 -3.109375 3.640625q-2.03125 1.265625 -4.265625 1.265625q-1.640625 0 -2.953125 -0.6875q-1.296875 -0.703125 -2.140625 -1.75l0 9.421875l-3.28125 0zm2.984375 -16.984375q0 3.734375 1.5 5.515625q1.515625 1.78125 3.671875 1.78125q2.1875 0 3.734375 -1.84375q1.5625 -1.84375 1.5625 -5.734375q0 -3.703125 -1.515625 -5.53125q-1.515625 -1.84375 -3.640625 -1.84375q-2.09375 0 -3.703125 1.953125q-1.609375 1.953125 -1.609375 5.703125zm30.416382 7.171875q-1.828125 1.546875 -3.515625 2.1875q-1.6875 0.640625 -3.609375 0.640625q-3.1875 0 -4.90625 -1.546875q-1.71875 -1.5625 -1.71875 -4.0q0 -1.421875 0.640625 -2.59375q0.65625 -1.171875 1.703125 -1.875q1.046875 -0.71875 2.359375 -1.078125q0.96875 -0.265625 2.921875 -0.5q3.96875 -0.46875 5.84375 -1.125q0.03125 -0.671875 0.03125 -0.859375q0 -2.0 -0.9375 -2.828125q-1.25 -1.109375 -3.734375 -1.109375q-2.3125 0 -3.421875 0.8125q-1.09375 0.8125 -1.625 2.875l-3.21875 -0.4375q0.4375 -2.0625 1.4375 -3.328125q1.015625 -1.265625 2.90625 -1.953125q1.890625 -0.6875 4.390625 -0.6875q2.484375 0 4.03125 0.59375q1.546875 0.578125 2.28125 1.46875q0.734375 0.875 1.015625 2.21875q0.171875 0.84375 0.171875 3.03125l0 4.375q0 4.578125 0.203125 5.796875q0.21875 1.203125 0.828125 2.3125l-3.421875 0q-0.515625 -1.015625 -0.65625 -2.390625zm-0.28125 -7.328125q-1.78125 0.734375 -5.359375 1.25q-2.015625 0.28125 -2.859375 0.65625q-0.828125 0.359375 -1.296875 1.0625q-0.453125 0.703125 -0.453125 1.5625q0 1.3125 0.984375 2.1875q1.0 0.875 2.921875 0.875q1.890625 0 3.359375 -0.828125q1.484375 -0.84375 2.1875 -2.28125q0.515625 -1.109375 0.515625 -3.28125l0 -1.203125zm8.432007 -13.234375l0 -3.765625l3.28125 0l0 3.765625l-3.28125 0zm0 22.953125l0 -19.359375l3.28125 0l0 19.359375l-3.28125 0zm6.949402 -5.78125l3.25 -0.5q0.28125 1.9375 1.515625 2.984375q1.25 1.03125 3.5 1.03125q2.265625 0 3.359375 -0.90625q1.09375 -0.921875 1.09375 -2.171875q0 -1.109375 -0.96875 -1.75q-0.671875 -0.4375 -3.359375 -1.109375q-3.609375 -0.90625 -5.0 -1.5625q-1.390625 -0.671875 -2.125 -1.84375q-0.71875 -1.1875 -0.71875 -2.609375q0 -1.296875 0.59375 -2.390625q0.59375 -1.109375 1.625 -1.84375q0.765625 -0.5625 2.078125 -0.953125q1.328125 -0.390625 2.84375 -0.390625q2.265625 0 3.984375 0.65625q1.734375 0.65625 2.546875 1.78125q0.828125 1.125 1.140625 3.0l-3.21875 0.4375q-0.21875 -1.5 -1.265625 -2.328125q-1.046875 -0.84375 -2.953125 -0.84375q-2.265625 0 -3.234375 0.75q-0.96875 0.734375 -0.96875 1.75q0 0.625 0.40625 1.140625q0.40625 0.53125 1.265625 0.875q0.484375 0.1875 2.890625 0.84375q3.484375 0.921875 4.859375 1.515625q1.375 0.59375 2.15625 1.734375q0.78125 1.125 0.78125 2.796875q0 1.640625 -0.953125 3.09375q-0.953125 1.453125 -2.765625 2.25q-1.796875 0.78125 -4.078125 0.78125q-3.765625 0 -5.75 -1.5625q-1.984375 -1.578125 -2.53125 -4.65625zm42.9881 -1.3125l3.21875 0.421875q-0.515625 3.34375 -2.703125 5.234375q-2.171875 1.875 -5.34375 1.875q-3.984375 0 -6.40625 -2.59375q-2.40625 -2.59375 -2.40625 -7.453125q0 -3.125 1.03125 -5.46875q1.046875 -2.359375 3.171875 -3.53125q2.125 -1.1875 4.625 -1.1875q3.15625 0 5.15625 1.59375q2.0 1.59375 2.578125 4.53125l-3.203125 0.5q-0.453125 -1.953125 -1.609375 -2.9375q-1.15625 -0.984375 -2.796875 -0.984375q-2.484375 0 -4.03125 1.78125q-1.546875 1.765625 -1.546875 5.609375q0 3.90625 1.484375 5.671875q1.5 1.765625 3.90625 1.765625q1.9375 0 3.234375 -1.171875q1.296875 -1.1875 1.640625 -3.65625zm4.8046875 -2.578125q0 -5.390625 3.0 -7.96875q2.484375 -2.15625 6.078125 -2.15625q4.0 0 6.53125 2.625q2.53125 2.609375 2.53125 7.21875q0 3.734375 -1.125 5.875q-1.109375 2.140625 -3.265625 3.328125q-2.140625 1.1875 -4.671875 1.1875q-4.0625 0 -6.578125 -2.609375q-2.5 -2.609375 -2.5 -7.5zm3.375 0q0 3.71875 1.625 5.5625q1.625 1.84375 4.078125 1.84375q2.453125 0 4.0625 -1.859375q1.625 -1.859375 1.625 -5.65625q0 -3.59375 -1.640625 -5.4375q-1.625 -1.859375 -4.046875 -1.859375q-2.453125 0 -4.078125 1.84375q-1.625 1.84375 -1.625 5.5625zm18.603882 9.671875l0 -19.359375l2.953125 0l0 2.75q2.140625 -3.1875 6.171875 -3.1875q1.75 0 3.21875 0.640625q1.46875 0.625 2.1875 1.640625q0.734375 1.015625 1.03125 2.421875q0.171875 0.90625 0.171875 3.1875l0 11.90625l-3.28125 0l0 -11.78125q0 -2.0 -0.390625 -2.984375q-0.375 -1.0 -1.359375 -1.59375q-0.96875 -0.59375 -2.28125 -0.59375q-2.09375 0 -3.625 1.328125q-1.515625 1.328125 -1.515625 5.046875l0 10.578125l-3.28125 0zm33.400757 -7.09375l3.21875 0.421875q-0.515625 3.34375 -2.703125 5.234375q-2.171875 1.875 -5.34375 1.875q-3.984375 0 -6.40625 -2.59375q-2.40625 -2.59375 -2.40625 -7.453125q0 -3.125 1.03125 -5.46875q1.046875 -2.359375 3.171875 -3.53125q2.125 -1.1875 4.625 -1.1875q3.15625 0 5.15625 1.59375q2.0 1.59375 2.578125 4.53125l-3.203125 0.5q-0.453125 -1.953125 -1.609375 -2.9375q-1.15625 -0.984375 -2.796875 -0.984375q-2.484375 0 -4.03125 1.78125q-1.546875 1.765625 -1.546875 5.609375q0 3.90625 1.484375 5.671875q1.5 1.765625 3.90625 1.765625q1.9375 0 3.234375 -1.171875q1.296875 -1.1875 1.640625 -3.65625zm19.289062 0.859375l3.375 0.421875q-0.796875 2.96875 -2.96875 4.609375q-2.15625 1.640625 -5.53125 1.640625q-4.25 0 -6.75 -2.609375q-2.484375 -2.625 -2.484375 -7.34375q0 -4.890625 2.515625 -7.578125q2.515625 -2.703125 6.53125 -2.703125q3.890625 0 6.34375 2.640625q2.453125 2.640625 2.453125 7.4375q0 0.296875 -0.015625 0.875l-14.4375 0q0.1875 3.1875 1.8125 4.890625q1.625 1.6875 4.046875 1.6875q1.796875 0 3.078125 -0.9375q1.28125 -0.953125 2.03125 -3.03125zm-10.78125 -5.296875l10.8125 0q-0.21875 -2.453125 -1.234375 -3.671875q-1.578125 -1.890625 -4.078125 -1.890625q-2.25 0 -3.796875 1.515625q-1.53125 1.5 -1.703125 4.046875zm18.307007 -11.421875l0 -3.765625l3.28125 0l0 3.765625l-3.28125 0zm0 22.953125l0 -19.359375l3.28125 0l0 19.359375l-3.28125 0zm15.433777 -2.9375l0.46875 2.90625q-1.375 0.28125 -2.46875 0.28125q-1.796875 0 -2.78125 -0.5625q-0.984375 -0.5625 -1.390625 -1.484375q-0.390625 -0.921875 -0.390625 -3.875l0 -11.140625l-2.40625 0l0 -2.546875l2.40625 0l0 -4.796875l3.265625 -1.96875l0 6.765625l3.296875 0l0 2.546875l-3.296875 0l0 11.328125q0 1.40625 0.171875 1.8125q0.171875 0.390625 0.5625 0.625q0.390625 0.234375 1.125 0.234375q0.546875 0 1.4375 -0.125zm1.9803467 -6.734375q0 -5.390625 3.0 -7.96875q2.484375 -2.15625 6.078125 -2.15625q4.0 0 6.53125 2.625q2.53125 2.609375 2.53125 7.21875q0 3.734375 -1.125 5.875q-1.109375 2.140625 -3.265625 3.328125q-2.140625 1.1875 -4.671875 1.1875q-4.0625 0 -6.578125 -2.609375q-2.5 -2.609375 -2.5 -7.5zm3.375 0q0 3.71875 1.625 5.5625q1.625 1.84375 4.078125 1.84375q2.453125 0 4.0625 -1.859375q1.625 -1.859375 1.625 -5.65625q0 -3.59375 -1.640625 -5.4375q-1.625 -1.859375 -4.046875 -1.859375q-2.453125 0 -4.078125 1.84375q-1.625 1.84375 -1.625 5.5625zm17.291382 3.890625l3.25 -0.5q0.28125 1.9375 1.515625 2.984375q1.25 1.03125 3.5 1.03125q2.265625 0 3.359375 -0.90625q1.09375 -0.921875 1.09375 -2.171875q0 -1.109375 -0.96875 -1.75q-0.671875 -0.4375 -3.359375 -1.109375q-3.609375 -0.90625 -5.0 -1.5625q-1.390625 -0.671875 -2.125 -1.84375q-0.71875 -1.1875 -0.71875 -2.609375q0 -1.296875 0.59375 -2.390625q0.59375 -1.109375 1.625 -1.84375q0.765625 -0.5625 2.078125 -0.953125q1.328125 -0.390625 2.84375 -0.390625q2.265625 0 3.984375 0.65625q1.734375 0.65625 2.546875 1.78125q0.828125 1.125 1.140625 3.0l-3.21875 0.4375q-0.21875 -1.5 -1.265625 -2.328125q-1.046875 -0.84375 -2.953125 -0.84375q-2.265625 0 -3.234375 0.75q-0.96875 0.734375 -0.96875 1.75q0 0.625 0.40625 1.140625q0.40625 0.53125 1.265625 0.875q0.484375 0.1875 2.890625 0.84375q3.484375 0.921875 4.859375 1.515625q1.375 0.59375 2.15625 1.734375q0.78125 1.125 0.78125 2.796875q0 1.640625 -0.953125 3.09375q-0.953125 1.453125 -2.765625 2.25q-1.796875 0.78125 -4.078125 0.78125q-3.765625 0 -5.75 -1.5625q-1.984375 -1.578125 -2.53125 -4.65625z" fill-rule="nonzero"/><path fill="#000000" fill-opacity="0.0" d="m0 130.72441l1058.3307 0l0 464.5984l-1058.3307 0z" fill-rule="evenodd"/><path fill="#ffffff" d="m25.357956 146.45065q1.359375 0 2.671875 0.703125q1.3125 0.703125 2.03125 2.015625q0.734375 1.3125 0.734375 2.734375q0 2.25 -1.59375 3.859375q-1.59375 1.59375 -3.84375 1.59375q-2.265625 0 -3.859375 -1.59375q-1.59375 -1.609375 -1.59375 -3.859375q0 -1.4375 0.71875 -2.734375q0.734375 -1.3125 2.046875 -2.015625q1.3125 -0.703125 2.6875 -0.703125z" fill-rule="nonzero"/><path fill="#ffffff" d="m62.125 159.0444l-4.8125 -18.125l2.453125 0l2.765625 11.875q0.4375 1.875 0.765625 3.71875q0.6875 -2.90625 0.8125 -3.359375l3.453125 -12.234375l2.890625 0l2.59375 9.171875q0.984375 3.40625 1.421875 6.421875q0.34375 -1.71875 0.890625 -3.953125l2.84375 -11.640625l2.421875 0l-4.96875 18.125l-2.3125 0l-3.828125 -13.8125q-0.484375 -1.734375 -0.5625 -2.125q-0.296875 1.25 -0.53125 2.125l-3.859375 13.8125l-2.4375 0zm28.979462 -4.234375l2.296875 0.296875q-0.53125 2.015625 -2.015625 3.125q-1.46875 1.109375 -3.75 1.109375q-2.890625 0 -4.578125 -1.765625q-1.6875 -1.78125 -1.6875 -4.984375q0 -3.3125 1.703125 -5.140625q1.71875 -1.84375 4.4375 -1.84375q2.640625 0 4.296875 1.796875q1.671875 1.796875 1.671875 5.046875q0 0.203125 -0.015625 0.59375l-9.78125 0q0.109375 2.171875 1.203125 3.328125q1.109375 1.140625 2.765625 1.140625q1.21875 0 2.078125 -0.640625q0.875 -0.640625 1.375 -2.0625zm-7.3125 -3.59375l7.34375 0q-0.15625 -1.65625 -0.84375 -2.484375q-1.0625 -1.28125 -2.75 -1.28125q-1.546875 0 -2.59375 1.03125q-1.03125 1.015625 -1.15625 2.734375zm14.461304 7.828125l-2.0625 0l0 -18.125l2.234375 0l0 6.46875q1.40625 -1.78125 3.59375 -1.78125q1.203125 0 2.28125 0.5q1.09375 0.484375 1.78125 1.375q0.703125 0.875 1.09375 2.125q0.40625 1.25 0.40625 2.671875q0 3.375 -1.671875 5.21875q-1.671875 1.84375 -4.0 1.84375q-2.328125 0 -3.65625 -1.9375l0 1.640625zm-0.015625 -6.671875q0 2.375 0.640625 3.421875q1.046875 1.71875 2.84375 1.71875q1.453125 0 2.515625 -1.265625q1.0625 -1.265625 1.0625 -3.78125q0 -2.578125 -1.015625 -3.796875q-1.015625 -1.21875 -2.46875 -1.21875q-1.453125 0 -2.515625 1.265625q-1.0625 1.265625 -1.0625 3.65625zm18.560776 0.84375l2.265625 -0.1875q0.15625 1.359375 0.734375 2.234375q0.59375 0.859375 1.828125 1.40625q1.234375 0.53125 2.78125 0.53125q1.375 0 2.421875 -0.40625q1.0625 -0.40625 1.5625 -1.109375q0.515625 -0.71875 0.515625 -1.5625q0 -0.859375 -0.5 -1.484375q-0.484375 -0.640625 -1.625 -1.078125q-0.71875 -0.28125 -3.21875 -0.875q-2.5 -0.609375 -3.5 -1.140625q-1.296875 -0.671875 -1.9375 -1.671875q-0.640625 -1.015625 -0.640625 -2.265625q0 -1.375 0.78125 -2.5625q0.78125 -1.203125 2.265625 -1.8125q1.5 -0.625 3.34375 -0.625q2.015625 0 3.546875 0.65625q1.546875 0.640625 2.375 1.90625q0.828125 1.25 0.890625 2.859375l-2.3125 0.171875q-0.171875 -1.71875 -1.25 -2.59375q-1.0625 -0.890625 -3.15625 -0.890625q-2.171875 0 -3.171875 0.796875q-1.0 0.796875 -1.0 1.921875q0 0.984375 0.703125 1.609375q0.703125 0.640625 3.625 1.296875q2.921875 0.65625 4.015625 1.15625q1.578125 0.734375 2.328125 1.859375q0.765625 1.109375 0.765625 2.5625q0 1.453125 -0.84375 2.734375q-0.828125 1.28125 -2.375 2.0q-1.546875 0.703125 -3.484375 0.703125q-2.46875 0 -4.140625 -0.71875q-1.65625 -0.71875 -2.609375 -2.15625q-0.9375 -1.4375 -0.984375 -3.265625zm25.987411 1.015625l2.1875 0.28125q-0.34375 2.265625 -1.828125 3.546875q-1.484375 1.28125 -3.625 1.28125q-2.703125 0 -4.34375 -1.765625q-1.640625 -1.765625 -1.640625 -5.046875q0 -2.125 0.703125 -3.71875q0.71875 -1.59375 2.15625 -2.390625q1.4375 -0.8125 3.125 -0.8125q2.140625 0 3.5 1.09375q1.359375 1.078125 1.75 3.0625l-2.171875 0.34375q-0.296875 -1.328125 -1.09375 -1.984375q-0.78125 -0.671875 -1.890625 -0.671875q-1.6875 0 -2.734375 1.203125q-1.046875 1.203125 -1.046875 3.8125q0 2.640625 1.015625 3.84375q1.015625 1.203125 2.640625 1.203125q1.3125 0 2.1875 -0.796875q0.875 -0.8125 1.109375 -2.484375zm4.0703125 4.8125l0 -13.140625l2.0 0l0 2.0q0.78125 -1.40625 1.421875 -1.84375q0.65625 -0.453125 1.4375 -0.453125q1.125 0 2.28125 0.71875l-0.765625 2.078125q-0.8125 -0.484375 -1.640625 -0.484375q-0.71875 0 -1.3125 0.4375q-0.578125 0.4375 -0.828125 1.21875q-0.359375 1.1875 -0.359375 2.59375l0 6.875l-2.234375 0zm17.028214 -1.625q-1.234375 1.0625 -2.375 1.5q-1.140625 0.421875 -2.453125 0.421875q-2.171875 0 -3.328125 -1.046875q-1.15625 -1.0625 -1.15625 -2.71875q0 -0.953125 0.4375 -1.75q0.4375 -0.796875 1.140625 -1.28125q0.71875 -0.484375 1.609375 -0.734375q0.65625 -0.171875 1.96875 -0.328125q2.703125 -0.328125 3.96875 -0.765625q0.015625 -0.46875 0.015625 -0.59375q0 -1.359375 -0.625 -1.90625q-0.859375 -0.765625 -2.53125 -0.765625q-1.578125 0 -2.328125 0.5625q-0.75 0.546875 -1.109375 1.9375l-2.171875 -0.296875q0.296875 -1.390625 0.96875 -2.25q0.6875 -0.859375 1.96875 -1.328125q1.296875 -0.46875 2.984375 -0.46875q1.6875 0 2.734375 0.40625q1.046875 0.390625 1.546875 1.0q0.5 0.59375 0.6875 1.5q0.125 0.578125 0.125 2.0625l0 2.96875q0 3.09375 0.140625 3.921875q0.140625 0.828125 0.5625 1.578125l-2.328125 0q-0.34375 -0.6875 -0.453125 -1.625zm-0.1875 -4.96875q-1.203125 0.5 -3.625 0.84375q-1.375 0.203125 -1.953125 0.453125q-0.5625 0.234375 -0.875 0.71875q-0.296875 0.46875 -0.296875 1.046875q0 0.890625 0.671875 1.484375q0.671875 0.59375 1.96875 0.59375q1.28125 0 2.28125 -0.5625q1.0 -0.5625 1.484375 -1.53125q0.34375 -0.75 0.34375 -2.234375l0 -0.8125zm5.7113037 11.625l0 -18.171875l2.03125 0l0 1.71875q0.71875 -1.0 1.609375 -1.5q0.90625 -0.515625 2.1875 -0.515625q1.6875 0 2.96875 0.875q1.296875 0.859375 1.953125 2.4375q0.65625 1.578125 0.65625 3.453125q0 2.015625 -0.734375 3.640625q-0.71875 1.609375 -2.09375 2.46875q-1.375 0.859375 -2.90625 0.859375q-1.109375 0 -2.0 -0.46875q-0.875 -0.46875 -1.453125 -1.1875l0 6.390625l-2.21875 0zm2.015625 -11.53125q0 2.546875 1.015625 3.765625q1.03125 1.203125 2.5 1.203125q1.484375 0 2.53125 -1.25q1.0625 -1.265625 1.0625 -3.890625q0 -2.515625 -1.03125 -3.765625q-1.03125 -1.25 -2.46875 -1.25q-1.421875 0 -2.515625 1.328125q-1.09375 1.328125 -1.09375 3.859375zm12.086304 -9.078125l0 -2.546875l2.21875 0l0 2.546875l-2.21875 0zm0 15.578125l0 -13.140625l2.21875 0l0 13.140625l-2.21875 0zm5.6114807 0l0 -13.140625l2.0 0l0 1.875q1.453125 -2.171875 4.1875 -2.171875q1.1875 0 2.171875 0.4375q1.0 0.421875 1.484375 1.125q0.5 0.6875 0.703125 1.640625q0.125 0.609375 0.125 2.15625l0 8.078125l-2.234375 0l0 -7.984375q0 -1.359375 -0.265625 -2.03125q-0.25 -0.6875 -0.90625 -1.078125q-0.65625 -0.40625 -1.546875 -0.40625q-1.421875 0 -2.46875 0.90625q-1.03125 0.890625 -1.03125 3.421875l0 7.171875l-2.21875 0zm13.680054 1.09375l2.15625 0.3125q0.140625 1.0 0.765625 1.46875q0.828125 0.609375 2.25 0.609375q1.546875 0 2.390625 -0.625q0.84375 -0.609375 1.140625 -1.71875q0.171875 -0.6875 0.15625 -2.859375q-1.453125 1.71875 -3.625 1.71875q-2.71875 0 -4.203125 -1.953125q-1.484375 -1.953125 -1.484375 -4.6875q0 -1.875 0.671875 -3.46875q0.6875 -1.59375 1.984375 -2.453125q1.296875 -0.875 3.03125 -0.875q2.328125 0 3.84375 1.890625l0 -1.59375l2.046875 0l0 11.359375q0 3.0625 -0.625 4.34375q-0.625 1.28125 -1.984375 2.015625q-1.34375 0.75 -3.328125 0.75q-2.34375 0 -3.796875 -1.0625q-1.4375 -1.046875 -1.390625 -3.171875zm1.84375 -7.890625q0 2.578125 1.015625 3.765625q1.03125 1.1875 2.578125 1.1875q1.53125 0 2.5625 -1.171875q1.046875 -1.1875 1.046875 -3.71875q0 -2.40625 -1.078125 -3.625q-1.0625 -1.234375 -2.5625 -1.234375q-1.484375 0 -2.53125 1.21875q-1.03125 1.203125 -1.03125 3.578125zm13.258179 -3.796875l0 -2.546875l2.546875 0l0 2.546875l-2.546875 0zm0 10.59375l0 -2.53125l2.546875 0l0 2.53125l-2.546875 0zm22.448944 -4.234375l2.296875 0.296875q-0.53125 2.015625 -2.015625 3.125q-1.46875 1.109375 -3.75 1.109375q-2.890625 0 -4.578125 -1.765625q-1.6875 -1.78125 -1.6875 -4.984375q0 -3.3125 1.703125 -5.140625q1.71875 -1.84375 4.4375 -1.84375q2.640625 0 4.296875 1.796875q1.671875 1.796875 1.671875 5.046875q0 0.203125 -0.015625 0.59375l-9.78125 0q0.109375 2.171875 1.203125 3.328125q1.109375 1.140625 2.765625 1.140625q1.21875 0 2.078125 -0.640625q0.875 -0.640625 1.375 -2.0625zm-7.3125 -3.59375l7.34375 0q-0.15625 -1.65625 -0.84375 -2.484375q-1.0625 -1.28125 -2.75 -1.28125q-1.546875 0 -2.59375 1.03125q-1.03125 1.015625 -1.15625 2.734375zm10.930054 7.828125l4.796875 -6.828125l-4.4375 -6.3125l2.78125 0l2.015625 3.09375q0.5625 0.875 0.921875 1.46875q0.53125 -0.828125 1.0 -1.453125l2.203125 -3.109375l2.65625 0l-4.53125 6.1875l4.8906097 6.953125l-2.7343597 0l-2.703125 -4.078125l-0.71875 -1.109375l-3.453125 5.1875l-2.6875 0zm19.007797 -1.984375l0.3125 1.953125q-0.9375 0.203125 -1.671875 0.203125q-1.21875 0 -1.890625 -0.375q-0.65625 -0.390625 -0.9375 -1.015625q-0.265625 -0.625 -0.265625 -2.625l0 -7.5625l-1.640625 0l0 -1.734375l1.640625 0l0 -3.25l2.21875 -1.328125l0 4.578125l2.234375 0l0 1.734375l-2.234375 0l0 7.6875q0 0.953125 0.109375 1.234375q0.125 0.265625 0.390625 0.421875q0.265625 0.15625 0.75 0.15625q0.375 0 0.984375 -0.078125zm2.1463623 1.984375l0 -13.140625l2.0 0l0 2.0q0.78125 -1.40625 1.421875 -1.84375q0.65625 -0.453125 1.4375 -0.453125q1.125 0 2.28125 0.71875l-0.765625 2.078125q-0.8125 -0.484375 -1.640625 -0.484375q-0.71875 0 -1.3125 0.4375q-0.578125 0.4375 -0.828125 1.21875q-0.359375 1.1875 -0.359375 2.59375l0 6.875l-2.234375 0zm17.028198 -1.625q-1.234375 1.0625 -2.375 1.5q-1.140625 0.421875 -2.453125 0.421875q-2.171875 0 -3.328125 -1.046875q-1.15625 -1.0625 -1.15625 -2.71875q0 -0.953125 0.4375 -1.75q0.4375 -0.796875 1.140625 -1.28125q0.71875 -0.484375 1.609375 -0.734375q0.65625 -0.171875 1.96875 -0.328125q2.703125 -0.328125 3.96875 -0.765625q0.015625 -0.46875 0.015625 -0.59375q0 -1.359375 -0.625 -1.90625q-0.859375 -0.765625 -2.53125 -0.765625q-1.578125 0 -2.328125 0.5625q-0.75 0.546875 -1.109375 1.9375l-2.171875 -0.296875q0.296875 -1.390625 0.96875 -2.25q0.6875 -0.859375 1.96875 -1.328125q1.296875 -0.46875 2.984375 -0.46875q1.6875 0 2.734375 0.40625q1.046875 0.390625 1.546875 1.0q0.5 0.59375 0.6875 1.5q0.125 0.578125 0.125 2.0625l0 2.96875q0 3.09375 0.140625 3.921875q0.140625 0.828125 0.5625 1.578125l-2.328125 0q-0.34375 -0.6875 -0.453125 -1.625zm-0.1875 -4.96875q-1.203125 0.5 -3.625 0.84375q-1.375 0.203125 -1.953125 0.453125q-0.5625 0.234375 -0.875 0.71875q-0.296875 0.46875 -0.296875 1.046875q0 0.890625 0.671875 1.484375q0.671875 0.59375 1.96875 0.59375q1.28125 0 2.28125 -0.5625q1.0 -0.5625 1.484375 -1.53125q0.34375 -0.75 0.34375 -2.234375l0 -0.8125zm14.273804 1.78125l2.1875 0.28125q-0.34375 2.265625 -1.828125 3.546875q-1.484375 1.28125 -3.625 1.28125q-2.703125 0 -4.34375 -1.765625q-1.640625 -1.765625 -1.640625 -5.046875q0 -2.125 0.703125 -3.71875q0.71875 -1.59375 2.15625 -2.390625q1.4375 -0.8125 3.125 -0.8125q2.140625 0 3.5 1.09375q1.359375 1.078125 1.75 3.0625l-2.171875 0.34375q-0.296875 -1.328125 -1.09375 -1.984375q-0.78125 -0.671875 -1.890625 -0.671875q-1.6875 0 -2.734375 1.203125q-1.046875 1.203125 -1.046875 3.8125q0 2.640625 1.015625 3.84375q1.015625 1.203125 2.640625 1.203125q1.3125 0 2.1875 -0.796875q0.875 -0.8125 1.109375 -2.484375zm-5.15625 6.46875l0.640625 -2.1875l1.65625 0l-0.40625 1.3125q1.046875 0.125 1.578125 0.65625q0.53125 0.53125 0.53125 1.171875q0 0.921875 -0.890625 1.625q-0.890625 0.71875 -2.671875 0.71875q-1.015625 0 -1.78125 -0.140625l0.125 -1.453125q0.796875 0.046875 1.171875 0.046875q1.15625 0 1.625 -0.3125q0.359375 -0.25 0.359375 -0.609375q0 -0.21875 -0.140625 -0.390625q-0.140625 -0.171875 -0.53125 -0.296875q-0.375 -0.125 -1.265625 -0.140625zm17.820312 -3.28125q-1.234375 1.0625 -2.375 1.5q-1.140625 0.421875 -2.453125 0.421875q-2.171875 0 -3.328125 -1.046875q-1.15625 -1.0625 -1.15625 -2.71875q0 -0.953125 0.4375 -1.75q0.4375 -0.796875 1.140625 -1.28125q0.71875 -0.484375 1.609375 -0.734375q0.65625 -0.171875 1.96875 -0.328125q2.703125 -0.328125 3.96875 -0.765625q0.015625 -0.46875 0.015625 -0.59375q0 -1.359375 -0.625 -1.90625q-0.859375 -0.765625 -2.53125 -0.765625q-1.578125 0 -2.328125 0.5625q-0.75 0.546875 -1.109375 1.9375l-2.171875 -0.296875q0.296875 -1.390625 0.96875 -2.25q0.6875 -0.859375 1.96875 -1.328125q1.296875 -0.46875 2.984375 -0.46875q1.6875 0 2.734375 0.40625q1.046875 0.390625 1.546875 1.0q0.5 0.59375 0.6875 1.5q0.125 0.578125 0.125 2.0625l0 2.96875q0 3.09375 0.140625 3.921875q0.140625 0.828125 0.5625 1.578125l-2.328125 0q-0.34375 -0.6875 -0.453125 -1.625zm-0.1875 -4.96875q-1.203125 0.5 -3.625 0.84375q-1.375 0.203125 -1.953125 0.453125q-0.5625 0.234375 -0.875 0.71875q-0.296875 0.46875 -0.296875 1.046875q0 0.890625 0.671875 1.484375q0.671875 0.59375 1.96875 0.59375q1.28125 0 2.28125 -0.5625q1.0 -0.5625 1.484375 -1.53125q0.34375 -0.75 0.34375 -2.234375l0 -0.8125zm-7.203125 -8.484375q-0.015625 -1.28125 0.703125 -2.046875q0.703125 -0.765625 1.796875 -0.765625q0.765625 0 2.09375 0.65625q0.734375 0.375 1.15625 0.375q0.40625 0 0.609375 -0.21875q0.21875 -0.21875 0.296875 -0.859375l1.609375 0q-0.03125 1.421875 -0.71875 2.125q-0.671875 0.703125 -1.703125 0.703125q-0.78125 0 -2.046875 -0.703125q-0.828125 -0.4375 -1.21875 -0.4375q-0.421875 0 -0.6875 0.296875q-0.265625 0.296875 -0.25 0.875l-1.640625 0zm12.086304 8.515625q0 -3.65625 2.03125 -5.40625q1.6875 -1.46875 4.125 -1.46875q2.703125 0 4.421875 1.78125q1.71875 1.78125 1.71875 4.90625q0 2.53125 -0.765625 3.984375q-0.75 1.453125 -2.203125 2.265625q-1.453125 0.796875 -3.171875 0.796875q-2.765625 0 -4.46875 -1.765625q-1.6875 -1.765625 -1.6875 -5.09375zm2.28125 0q0 2.515625 1.09375 3.78125q1.109375 1.25 2.78125 1.25q1.65625 0 2.75 -1.265625q1.109375 -1.265625 1.109375 -3.84375q0 -2.4375 -1.109375 -3.6875q-1.109375 -1.265625 -2.75 -1.265625q-1.671875 0 -2.78125 1.25q-1.09375 1.25 -1.09375 3.78125zm28.185791 6.5625l0 -1.65625q-1.25 1.953125 -3.671875 1.953125q-1.5625 0 -2.890625 -0.859375q-1.3125 -0.875 -2.046875 -2.421875q-0.71875 -1.546875 -0.71875 -3.5625q0 -1.96875 0.65625 -3.5625q0.65625 -1.609375 1.96875 -2.46875q1.3125 -0.859375 2.9375 -0.859375q1.1875 0 2.109375 0.515625q0.9375 0.5 1.515625 1.296875l0 -6.5l2.203125 0l0 18.125l-2.0625 0zm-7.03125 -6.546875q0 2.515625 1.0625 3.765625q1.0625 1.25 2.515625 1.25q1.453125 0 2.46875 -1.1875q1.03125 -1.203125 1.03125 -3.65625q0 -2.6875 -1.046875 -3.953125q-1.03125 -1.265625 -2.5625 -1.265625q-1.484375 0 -2.484375 1.21875q-0.984375 1.203125 -0.984375 3.828125zm21.586304 2.3125l2.296875 0.296875q-0.53125 2.015625 -2.015625 3.125q-1.46875 1.109375 -3.75 1.109375q-2.890625 0 -4.578125 -1.765625q-1.6875 -1.78125 -1.6875 -4.984375q0 -3.3125 1.703125 -5.140625q1.71875 -1.84375 4.4375 -1.84375q2.640625 0 4.296875 1.796875q1.671875 1.796875 1.671875 5.046875q0 0.203125 -0.015625 0.59375l-9.78125 0q0.109375 2.171875 1.203125 3.328125q1.109375 1.140625 2.765625 1.140625q1.21875 0 2.078125 -0.640625q0.875 -0.640625 1.375 -2.0625zm-7.3125 -3.59375l7.34375 0q-0.15625 -1.65625 -0.84375 -2.484375q-1.0625 -1.28125 -2.75 -1.28125q-1.546875 0 -2.59375 1.03125q-1.03125 1.015625 -1.15625 2.734375zm27.967041 7.828125l0 -1.65625q-1.25 1.953125 -3.671875 1.953125q-1.5625 0 -2.890625 -0.859375q-1.3125 -0.875 -2.046875 -2.421875q-0.71875 -1.546875 -0.71875 -3.5625q0 -1.96875 0.65625 -3.5625q0.65625 -1.609375 1.96875 -2.46875q1.3125 -0.859375 2.9375 -0.859375q1.1875 0 2.109375 0.515625q0.9375 0.5 1.515625 1.296875l0 -6.5l2.203125 0l0 18.125l-2.0625 0zm-7.03125 -6.546875q0 2.515625 1.0625 3.765625q1.0625 1.25 2.515625 1.25q1.453125 0 2.46875 -1.1875q1.03125 -1.203125 1.03125 -3.65625q0 -2.6875 -1.046875 -3.953125q-1.03125 -1.265625 -2.5625 -1.265625q-1.484375 0 -2.484375 1.21875q-0.984375 1.203125 -0.984375 3.828125zm21.164429 4.921875q-1.234375 1.0625 -2.375 1.5q-1.140625 0.421875 -2.453125 0.421875q-2.171875 0 -3.328125 -1.046875q-1.15625 -1.0625 -1.15625 -2.71875q0 -0.953125 0.4375 -1.75q0.4375 -0.796875 1.140625 -1.28125q0.71875 -0.484375 1.609375 -0.734375q0.65625 -0.171875 1.96875 -0.328125q2.703125 -0.328125 3.96875 -0.765625q0.015625 -0.46875 0.015625 -0.59375q0 -1.359375 -0.625 -1.90625q-0.859375 -0.765625 -2.53125 -0.765625q-1.578125 0 -2.328125 0.5625q-0.75 0.546875 -1.109375 1.9375l-2.171875 -0.296875q0.296875 -1.390625 0.96875 -2.25q0.6875 -0.859375 1.96875 -1.328125q1.296875 -0.46875 2.984375 -0.46875q1.6875 0 2.734375 0.40625q1.046875 0.390625 1.546875 1.0q0.5 0.59375 0.6875 1.5q0.125 0.578125 0.125 2.0625l0 2.96875q0 3.09375 0.140625 3.921875q0.140625 0.828125 0.5625 1.578125l-2.328125 0q-0.34375 -0.6875 -0.453125 -1.625zm-0.1875 -4.96875q-1.203125 0.5 -3.625 0.84375q-1.375 0.203125 -1.953125 0.453125q-0.5625 0.234375 -0.875 0.71875q-0.296875 0.46875 -0.296875 1.046875q0 0.890625 0.671875 1.484375q0.671875 0.59375 1.96875 0.59375q1.28125 0 2.28125 -0.5625q1.0 -0.5625 1.484375 -1.53125q0.34375 -0.75 0.34375 -2.234375l0 -0.8125zm14.226929 6.59375l0 -1.65625q-1.25 1.953125 -3.671875 1.953125q-1.5625 0 -2.890625 -0.859375q-1.3125 -0.875 -2.046875 -2.421875q-0.71875 -1.546875 -0.71875 -3.5625q0 -1.96875 0.65625 -3.5625q0.65625 -1.609375 1.96875 -2.46875q1.3125 -0.859375 2.9375 -0.859375q1.1875 0 2.109375 0.515625q0.9375 0.5 1.515625 1.296875l0 -6.5l2.203125 0l0 18.125l-2.0625 0zm-7.03125 -6.546875q0 2.515625 1.0625 3.765625q1.0625 1.25 2.515625 1.25q1.453125 0 2.46875 -1.1875q1.03125 -1.203125 1.03125 -3.65625q0 -2.6875 -1.046875 -3.953125q-1.03125 -1.265625 -2.5625 -1.265625q-1.484375 0 -2.484375 1.21875q-0.984375 1.203125 -0.984375 3.828125zm11.773804 -0.015625q0 -3.65625 2.03125 -5.40625q1.6875 -1.46875 4.125 -1.46875q2.703125 0 4.421875 1.78125q1.71875 1.78125 1.71875 4.90625q0 2.53125 -0.765625 3.984375q-0.75 1.453125 -2.203125 2.265625q-1.453125 0.796875 -3.171875 0.796875q-2.765625 0 -4.46875 -1.765625q-1.6875 -1.765625 -1.6875 -5.09375zm2.28125 0q0 2.515625 1.09375 3.78125q1.109375 1.25 2.78125 1.25q1.65625 0 2.75 -1.265625q1.109375 -1.265625 1.109375 -3.84375q0 -2.4375 -1.109375 -3.6875q-1.109375 -1.265625 -2.75 -1.265625q-1.671875 0 -2.78125 1.25q-1.09375 1.25 -1.09375 3.78125zm11.742554 2.640625l2.203125 -0.34375q0.1875 1.328125 1.03125 2.03125q0.84375 0.703125 2.359375 0.703125q1.546875 0 2.28125 -0.625q0.75 -0.625 0.75 -1.46875q0 -0.75 -0.65625 -1.1875q-0.46875 -0.296875 -2.28125 -0.75q-2.453125 -0.625 -3.40625 -1.078125q-0.9375 -0.453125 -1.421875 -1.25q-0.484375 -0.796875 -0.484375 -1.75q0 -0.890625 0.390625 -1.625q0.40625 -0.75 1.09375 -1.25q0.53125 -0.390625 1.421875 -0.65625q0.890625 -0.265625 1.921875 -0.265625q1.546875 0 2.71875 0.453125q1.171875 0.4375 1.71875 1.203125q0.5625 0.765625 0.765625 2.03125l-2.171875 0.296875q-0.140625 -1.015625 -0.859375 -1.578125q-0.71875 -0.5625 -2.015625 -0.5625q-1.53125 0 -2.1875 0.5q-0.65625 0.5 -0.65625 1.1875q0 0.4375 0.28125 0.78125q0.265625 0.359375 0.84375 0.59375q0.34375 0.125 1.96875 0.5625q2.359375 0.640625 3.296875 1.046875q0.9375 0.390625 1.46875 1.15625q0.53125 0.765625 0.53125 1.90625q0 1.109375 -0.65625 2.09375q-0.640625 0.984375 -1.875 1.53125q-1.21875 0.53125 -2.765625 0.53125q-2.5625 0 -3.90625 -1.0625q-1.328125 -1.0625 -1.703125 -3.15625zm29.154175 2.296875q-1.234375 1.0625 -2.375 1.5q-1.140625 0.421875 -2.453125 0.421875q-2.171875 0 -3.328125 -1.046875q-1.15625 -1.0625 -1.15625 -2.71875q0 -0.953125 0.4375 -1.75q0.4375 -0.796875 1.140625 -1.28125q0.71875 -0.484375 1.609375 -0.734375q0.65625 -0.171875 1.96875 -0.328125q2.703125 -0.328125 3.96875 -0.765625q0.015625 -0.46875 0.015625 -0.59375q0 -1.359375 -0.625 -1.90625q-0.859375 -0.765625 -2.53125 -0.765625q-1.578125 0 -2.328125 0.5625q-0.75 0.546875 -1.109375 1.9375l-2.171875 -0.296875q0.296875 -1.390625 0.96875 -2.25q0.6875 -0.859375 1.96875 -1.328125q1.296875 -0.46875 2.984375 -0.46875q1.6875 0 2.734375 0.40625q1.046875 0.390625 1.546875 1.0q0.5 0.59375 0.6875 1.5q0.125 0.578125 0.125 2.0625l0 2.96875q0 3.09375 0.140625 3.921875q0.140625 0.828125 0.5625 1.578125l-2.328125 0q-0.34375 -0.6875 -0.453125 -1.625zm-0.1875 -4.96875q-1.203125 0.5 -3.625 0.84375q-1.375 0.203125 -1.953125 0.453125q-0.5625 0.234375 -0.875 0.71875q-0.296875 0.46875 -0.296875 1.046875q0 0.890625 0.671875 1.484375q0.671875 0.59375 1.96875 0.59375q1.28125 0 2.28125 -0.5625q1.0 -0.5625 1.484375 -1.53125q0.34375 -0.75 0.34375 -2.234375l0 -0.8125zm14.320679 6.59375l0 -1.921875q-1.53125 2.21875 -4.171875 2.21875q-1.15625 0 -2.171875 -0.4375q-1.0 -0.453125 -1.5 -1.125q-0.484375 -0.671875 -0.6875 -1.65625q-0.125 -0.65625 -0.125 -2.078125l0 -8.140625l2.21875 0l0 7.296875q0 1.734375 0.140625 2.34375q0.203125 0.875 0.875 1.375q0.6875 0.5 1.6875 0.5q1.015625 0 1.890625 -0.5q0.875 -0.515625 1.234375 -1.40625q0.375 -0.890625 0.375 -2.5625l0 -7.046875l2.21875 0l0 13.140625l-1.984375 0zm10.336304 -1.984375l0.3125 1.953125q-0.9375 0.203125 -1.671875 0.203125q-1.21875 0 -1.890625 -0.375q-0.65625 -0.390625 -0.9375 -1.015625q-0.265625 -0.625 -0.265625 -2.625l0 -7.5625l-1.640625 0l0 -1.734375l1.640625 0l0 -3.25l2.21875 -1.328125l0 4.578125l2.234375 0l0 1.734375l-2.234375 0l0 7.6875q0 0.953125 0.109375 1.234375q0.125 0.265625 0.390625 0.421875q0.265625 0.15625 0.75 0.15625q0.375 0 0.984375 -0.078125zm1.3494873 -4.578125q0 -3.65625 2.03125 -5.40625q1.6875 -1.46875 4.125 -1.46875q2.703125 0 4.421875 1.78125q1.71875 1.78125 1.71875 4.90625q0 2.53125 -0.765625 3.984375q-0.75 1.453125 -2.203125 2.265625q-1.453125 0.796875 -3.171875 0.796875q-2.765625 0 -4.46875 -1.765625q-1.6875 -1.765625 -1.6875 -5.09375zm2.28125 0q0 2.515625 1.09375 3.78125q1.109375 1.25 2.78125 1.25q1.65625 0 2.75 -1.265625q1.109375 -1.265625 1.109375 -3.84375q0 -2.4375 -1.109375 -3.6875q-1.109375 -1.265625 -2.75 -1.265625q-1.671875 0 -2.78125 1.25q-1.09375 1.25 -1.09375 3.78125zm12.633179 6.5625l0 -13.140625l1.984375 0l0 1.84375q0.625 -0.953125 1.640625 -1.546875q1.03125 -0.59375 2.34375 -0.59375q1.46875 0 2.390625 0.609375q0.9375 0.609375 1.328125 1.703125q1.546875 -2.3125 4.046875 -2.3125q1.953125 0 3.0 1.09375q1.0625 1.078125 1.0625 3.328125l0 9.015625l-2.21875 0l0 -8.28125q0 -1.328125 -0.21875 -1.90625q-0.21875 -0.59375 -0.78125 -0.953125q-0.5625 -0.359375 -1.328125 -0.359375q-1.390625 0 -2.3125 0.921875q-0.90625 0.921875 -0.90625 2.953125l0 7.625l-2.234375 0l0 -8.53125q0 -1.484375 -0.546875 -2.21875q-0.53125 -0.75 -1.78125 -0.75q-0.9375 0 -1.734375 0.5q-0.796875 0.484375 -1.15625 1.4375q-0.359375 0.953125 -0.359375 2.75l0 6.8125l-2.21875 0zm29.66101 -1.625q-1.234375 1.0625 -2.375 1.5q-1.140625 0.421875 -2.453125 0.421875q-2.171875 0 -3.328125 -1.046875q-1.15625 -1.0625 -1.15625 -2.71875q0 -0.953125 0.4375 -1.75q0.4375 -0.796875 1.140625 -1.28125q0.71875 -0.484375 1.609375 -0.734375q0.65625 -0.171875 1.96875 -0.328125q2.703125 -0.328125 3.96875 -0.765625q0.015625 -0.46875 0.015625 -0.59375q0 -1.359375 -0.625 -1.90625q-0.859375 -0.765625 -2.53125 -0.765625q-1.578125 0 -2.328125 0.5625q-0.75 0.546875 -1.109375 1.9375l-2.171875 -0.296875q0.296875 -1.390625 0.96875 -2.25q0.6875 -0.859375 1.96875 -1.328125q1.296875 -0.46875 2.984375 -0.46875q1.6875 0 2.734375 0.40625q1.046875 0.390625 1.546875 1.0q0.5 0.59375 0.6875 1.5q0.125 0.578125 0.125 2.0625l0 2.96875q0 3.09375 0.140625 3.921875q0.140625 0.828125 0.5625 1.578125l-2.328125 0q-0.34375 -0.6875 -0.453125 -1.625zm-0.1875 -4.96875q-1.203125 0.5 -3.625 0.84375q-1.375 0.203125 -1.953125 0.453125q-0.5625 0.234375 -0.875 0.71875q-0.296875 0.46875 -0.296875 1.046875q0 0.890625 0.671875 1.484375q0.671875 0.59375 1.96875 0.59375q1.28125 0 2.28125 -0.5625q1.0 -0.5625 1.484375 -1.53125q0.34375 -0.75 0.34375 -2.234375l0 -0.8125zm10.570679 4.609375l0.3125 1.953125q-0.9375 0.203125 -1.671875 0.203125q-1.21875 0 -1.890625 -0.375q-0.65625 -0.390625 -0.9375 -1.015625q-0.265625 -0.625 -0.265625 -2.625l0 -7.5625l-1.640625 0l0 -1.734375l1.640625 0l0 -3.25l2.21875 -1.328125l0 4.578125l2.234375 0l0 1.734375l-2.234375 0l0 7.6875q0 0.953125 0.109375 1.234375q0.125 0.265625 0.390625 0.421875q0.265625 0.15625 0.75 0.15625q0.375 0 0.984375 -0.078125zm2.1932373 -13.59375l0 -2.546875l2.21875 0l0 2.546875l-2.21875 0zm0 15.578125l0 -13.140625l2.21875 0l0 13.140625l-2.21875 0zm4.439636 0l0 -1.8125l8.359375 -9.59375q-1.421875 0.078125 -2.515625 0.078125l-5.359375 0l0 -1.8125l10.734375 0l0 1.484375l-7.109375 8.328125l-1.375 1.515625q1.5 -0.109375 2.8125 -0.109375l6.078125 0l0 1.921875l-11.625 0zm22.398438 -1.625q-1.234375 1.0625 -2.375 1.5q-1.140625 0.421875 -2.453125 0.421875q-2.171875 0 -3.328125 -1.046875q-1.15625 -1.0625 -1.15625 -2.71875q0 -0.953125 0.4375 -1.75q0.4375 -0.796875 1.140625 -1.28125q0.71875 -0.484375 1.609375 -0.734375q0.65625 -0.171875 1.96875 -0.328125q2.703125 -0.328125 3.96875 -0.765625q0.015625 -0.46875 0.015625 -0.59375q0 -1.359375 -0.625 -1.90625q-0.859375 -0.765625 -2.53125 -0.765625q-1.578125 0 -2.328125 0.5625q-0.75 0.546875 -1.109375 1.9375l-2.171875 -0.296875q0.296875 -1.390625 0.96875 -2.25q0.6875 -0.859375 1.96875 -1.328125q1.296875 -0.46875 2.984375 -0.46875q1.6875 0 2.734375 0.40625q1.046875 0.390625 1.546875 1.0q0.5 0.59375 0.6875 1.5q0.125 0.578125 0.125 2.0625l0 2.96875q0 3.09375 0.140625 3.921875q0.140625 0.828125 0.5625 1.578125l-2.328125 0q-0.34375 -0.6875 -0.453125 -1.625zm-0.1875 -4.96875q-1.203125 0.5 -3.625 0.84375q-1.375 0.203125 -1.953125 0.453125q-0.5625 0.234375 -0.875 0.71875q-0.296875 0.46875 -0.296875 1.046875q0 0.890625 0.671875 1.484375q0.671875 0.59375 1.96875 0.59375q1.28125 0 2.28125 -0.5625q1.0 -0.5625 1.484375 -1.53125q0.34375 -0.75 0.34375 -2.234375l0 -0.8125zm14.226929 6.59375l0 -1.65625q-1.25 1.953125 -3.671875 1.953125q-1.5625 0 -2.890625 -0.859375q-1.3125 -0.875 -2.046875 -2.421875q-0.71875 -1.546875 -0.71875 -3.5625q0 -1.96875 0.65625 -3.5625q0.65625 -1.609375 1.96875 -2.46875q1.3125 -0.859375 2.9375 -0.859375q1.1875 0 2.109375 0.515625q0.9375 0.5 1.515625 1.296875l0 -6.5l2.203125 0l0 18.125l-2.0625 0zm-7.03125 -6.546875q0 2.515625 1.0625 3.765625q1.0625 1.25 2.515625 1.25q1.453125 0 2.46875 -1.1875q1.03125 -1.203125 1.03125 -3.65625q0 -2.6875 -1.046875 -3.953125q-1.03125 -1.265625 -2.5625 -1.265625q-1.484375 0 -2.484375 1.21875q-0.984375 1.203125 -0.984375 3.828125zm21.164429 4.921875q-1.234375 1.0625 -2.375 1.5q-1.140625 0.421875 -2.453125 0.421875q-2.171875 0 -3.328125 -1.046875q-1.15625 -1.0625 -1.15625 -2.71875q0 -0.953125 0.4375 -1.75q0.4375 -0.796875 1.140625 -1.28125q0.71875 -0.484375 1.609375 -0.734375q0.65625 -0.171875 1.96875 -0.328125q2.703125 -0.328125 3.96875 -0.765625q0.015625 -0.46875 0.015625 -0.59375q0 -1.359375 -0.625 -1.90625q-0.859375 -0.765625 -2.53125 -0.765625q-1.578125 0 -2.328125 0.5625q-0.75 0.546875 -1.109375 1.9375l-2.171875 -0.296875q0.296875 -1.390625 0.96875 -2.25q0.6875 -0.859375 1.96875 -1.328125q1.296875 -0.46875 2.984375 -0.46875q1.6875 0 2.734375 0.40625q1.046875 0.390625 1.546875 1.0q0.5 0.59375 0.6875 1.5q0.125 0.578125 0.125 2.0625l0 2.96875q0 3.09375 0.140625 3.921875q0.140625 0.828125 0.5625 1.578125l-2.328125 0q-0.34375 -0.6875 -0.453125 -1.625zm-0.1875 -4.96875q-1.203125 0.5 -3.625 0.84375q-1.375 0.203125 -1.953125 0.453125q-0.5625 0.234375 -0.875 0.71875q-0.296875 0.46875 -0.296875 1.046875q0 0.890625 0.671875 1.484375q0.671875 0.59375 1.96875 0.59375q1.28125 0 2.28125 -0.5625q1.0 -0.5625 1.484375 -1.53125q0.34375 -0.75 0.34375 -2.234375l0 -0.8125z" fill-rule="nonzero"/><path fill="#ffffff" d="m25.357956 176.85066q1.359375 0 2.671875 0.703125q1.3125 0.703125 2.03125 2.015625q0.734375 1.3125 0.734375 2.734375q0 2.25 -1.59375 3.859375q-1.59375 1.59375 -3.84375 1.59375q-2.265625 0 -3.859375 -1.59375q-1.59375 -1.609375 -1.59375 -3.859375q0 -1.4375 0.71875 -2.734375q0.734375 -1.3125 2.046875 -2.015625q1.3125 -0.703125 2.6875 -0.703125z" fill-rule="nonzero"/><path fill="#ffffff" d="m71.890625 183.08504l2.40625 0.609375q-0.765625 2.953125 -2.734375 4.515625q-1.953125 1.546875 -4.78125 1.546875q-2.9375 0 -4.78125 -1.1875q-1.828125 -1.203125 -2.78125 -3.46875q-0.953125 -2.265625 -0.953125 -4.859375q0 -2.828125 1.078125 -4.9375q1.078125 -2.109375 3.078125 -3.203125q2.0 -1.09375 4.390625 -1.09375q2.734375 0 4.578125 1.390625q1.859375 1.375 2.59375 3.890625l-2.359375 0.546875q-0.640625 -1.96875 -1.84375 -2.875q-1.1875 -0.90625 -3.015625 -0.90625q-2.078125 0 -3.484375 1.0q-1.40625 1.0 -1.984375 2.703125q-0.5625 1.6875 -0.5625 3.46875q0 2.3125 0.671875 4.046875q0.671875 1.71875 2.09375 2.578125q1.421875 0.84375 3.078125 0.84375q2.015625 0 3.40625 -1.15625q1.40625 -1.15625 1.90625 -3.453125zm13.634918 4.734375q-1.234375 1.0625 -2.375 1.5q-1.140625 0.421875 -2.453125 0.421875q-2.171875 0 -3.328125 -1.046875q-1.15625 -1.0625 -1.15625 -2.71875q0 -0.953125 0.4375 -1.75q0.4375 -0.796875 1.140625 -1.28125q0.71875 -0.484375 1.609375 -0.734375q0.65625 -0.171875 1.96875 -0.328125q2.703125 -0.328125 3.96875 -0.765625q0.015625 -0.46875 0.015625 -0.59375q0 -1.359375 -0.625 -1.90625q-0.859375 -0.765625 -2.53125 -0.765625q-1.578125 0 -2.328125 0.5625q-0.75 0.546875 -1.109375 1.9375l-2.171875 -0.296875q0.296875 -1.390625 0.96875 -2.25q0.6875 -0.859375 1.96875 -1.328125q1.296875 -0.46875 2.984375 -0.46875q1.6875 0 2.734375 0.40625q1.046875 0.390625 1.546875 1.0q0.5 0.59375 0.6875 1.5q0.125 0.578125 0.125 2.0625l0 2.96875q0 3.09375 0.140625 3.921875q0.140625 0.828125 0.5625 1.578125l-2.328125 0q-0.34375 -0.6875 -0.453125 -1.625zm-0.1875 -4.96875q-1.203125 0.5 -3.625 0.84375q-1.375 0.203125 -1.953125 0.453125q-0.5625 0.234375 -0.875 0.71875q-0.296875 0.46875 -0.296875 1.046875q0 0.890625 0.671875 1.484375q0.671875 0.59375 1.96875 0.59375q1.28125 0 2.28125 -0.5625q1.0 -0.5625 1.484375 -1.53125q0.34375 -0.75 0.34375 -2.234375l0 -0.8125zm5.7113037 11.625l0 -18.171875l2.03125 0l0 1.71875q0.71875 -1.0 1.609375 -1.5q0.90625 -0.515625 2.1875 -0.515625q1.6875 0 2.96875 0.875q1.296875 0.859375 1.953125 2.4375q0.65625 1.578125 0.65625 3.453125q0 2.015625 -0.734375 3.640625q-0.71875 1.609375 -2.09375 2.46875q-1.375 0.859375 -2.90625 0.859375q-1.109375 0 -2.0 -0.46875q-0.875 -0.46875 -1.453125 -1.1875l0 6.390625l-2.21875 0zm2.015625 -11.53125q0 2.546875 1.015625 3.765625q1.03125 1.203125 2.5 1.203125q1.484375 0 2.53125 -1.25q1.0625 -1.265625 1.0625 -3.890625q0 -2.515625 -1.03125 -3.765625q-1.03125 -1.25 -2.46875 -1.25q-1.421875 0 -2.515625 1.328125q-1.09375 1.328125 -1.09375 3.859375zm16.930054 4.515625l0.3125 1.953125q-0.9375 0.203125 -1.671875 0.203125q-1.21875 0 -1.890625 -0.375q-0.65625 -0.390625 -0.9375 -1.015625q-0.265625 -0.625 -0.265625 -2.625l0 -7.5625l-1.640625 0l0 -1.734375l1.640625 0l0 -3.25l2.21875 -1.328125l0 4.578125l2.234375 0l0 1.734375l-2.234375 0l0 7.6875q0 0.953125 0.109375 1.234375q0.125 0.265625 0.390625 0.421875q0.265625 0.15625 0.75 0.15625q0.375 0 0.984375 -0.078125zm10.740097 -2.828125l2.1875 0.28125q-0.34375 2.265625 -1.828125 3.546875q-1.484375 1.28125 -3.625 1.28125q-2.703125 0 -4.34375 -1.765625q-1.640625 -1.765625 -1.640625 -5.046875q0 -2.125 0.703125 -3.71875q0.71875 -1.59375 2.15625 -2.390625q1.4375 -0.8125 3.125 -0.8125q2.140625 0 3.5 1.09375q1.359375 1.078125 1.75 3.0625l-2.171875 0.34375q-0.296875 -1.328125 -1.09375 -1.984375q-0.78125 -0.671875 -1.890625 -0.671875q-1.6875 0 -2.734375 1.203125q-1.046875 1.203125 -1.046875 3.8125q0 2.640625 1.015625 3.84375q1.015625 1.203125 2.640625 1.203125q1.3125 0 2.1875 -0.796875q0.875 -0.8125 1.109375 -2.484375zm4.1015625 4.8125l0 -18.125l2.21875 0l0 6.5q1.5625 -1.8125 3.9375 -1.8125q1.453125 0 2.53125 0.578125q1.078125 0.578125 1.546875 1.59375q0.46875 1.015625 0.46875 2.9375l0 8.328125l-2.234375 0l0 -8.328125q0 -1.671875 -0.734375 -2.421875q-0.71875 -0.765625 -2.03125 -0.765625q-1.0 0 -1.875 0.515625q-0.859375 0.515625 -1.234375 1.390625q-0.375 0.875 -0.375 2.421875l0 7.1875l-2.21875 0zm22.648804 -1.625q-1.234375 1.0625 -2.375 1.5q-1.140625 0.421875 -2.453125 0.421875q-2.171875 0 -3.328125 -1.046875q-1.15625 -1.0625 -1.15625 -2.71875q0 -0.953125 0.4375 -1.75q0.4375 -0.796875 1.140625 -1.28125q0.71875 -0.484375 1.609375 -0.734375q0.65625 -0.171875 1.96875 -0.328125q2.703125 -0.328125 3.96875 -0.765625q0.015625 -0.46875 0.015625 -0.59375q0 -1.359375 -0.625 -1.90625q-0.859375 -0.765625 -2.53125 -0.765625q-1.578125 0 -2.328125 0.5625q-0.75 0.546875 -1.109375 1.9375l-2.171875 -0.296875q0.296875 -1.390625 0.96875 -2.25q0.6875 -0.859375 1.96875 -1.328125q1.296875 -0.46875 2.984375 -0.46875q1.6875 0 2.734375 0.40625q1.046875 0.390625 1.546875 1.0q0.5 0.59375 0.6875 1.5q0.125 0.578125 0.125 2.0625l0 2.96875q0 3.09375 0.140625 3.921875q0.140625 0.828125 0.5625 1.578125l-2.328125 0q-0.34375 -0.6875 -0.453125 -1.625zm-0.1875 -4.96875q-1.203125 0.5 -3.625 0.84375q-1.375 0.203125 -1.953125 0.453125q-0.5625 0.234375 -0.875 0.71875q-0.296875 0.46875 -0.296875 1.046875q0 0.890625 0.671875 1.484375q0.671875 0.59375 1.96875 0.59375q1.28125 0 2.28125 -0.5625q1.0 -0.5625 1.484375 -1.53125q0.34375 -0.75 0.34375 -2.234375l0 -0.8125zm6.3206787 -4.0l0 -2.546875l2.546875 0l0 2.546875l-2.546875 0zm0 10.59375l0 -2.53125l2.546875 0l0 2.53125l-2.546875 0zm12.636444 -6.5625q0 -3.65625 2.03125 -5.40625q1.6875 -1.46875 4.125 -1.46875q2.703125 0 4.421875 1.78125q1.71875 1.78125 1.71875 4.90625q0 2.53125 -0.765625 3.984375q-0.75 1.453125 -2.203125 2.265625q-1.453125 0.796875 -3.171875 0.796875q-2.765625 0 -4.46875 -1.765625q-1.6875 -1.765625 -1.6875 -5.09375zm2.28125 0q0 2.515625 1.09375 3.78125q1.109375 1.25 2.78125 1.25q1.65625 0 2.75 -1.265625q1.109375 -1.265625 1.109375 -3.84375q0 -2.4375 -1.109375 -3.6875q-1.109375 -1.265625 -2.75 -1.265625q-1.671875 0 -2.78125 1.25q-1.09375 1.25 -1.09375 3.78125zm19.67015 6.5625l0 -13.140625l1.984375 0l0 1.84375q0.625 -0.953125 1.640625 -1.546875q1.03125 -0.59375 2.34375 -0.59375q1.46875 0 2.390625 0.609375q0.9375 0.609375 1.328125 1.703125q1.546875 -2.3125 4.046875 -2.3125q1.953125 0 3.0 1.09375q1.0625 1.078125 1.0625 3.328125l0 9.015625l-2.21875 0l0 -8.28125q0 -1.328125 -0.21875 -1.90625q-0.21875 -0.59375 -0.78125 -0.953125q-0.5625 -0.359375 -1.328125 -0.359375q-1.390625 0 -2.3125 0.921875q-0.90625 0.921875 -0.90625 2.953125l0 7.625l-2.234375 0l0 -8.53125q0 -1.484375 -0.546875 -2.21875q-0.53125 -0.75 -1.78125 -0.75q-0.9375 0 -1.734375 0.5q-0.796875 0.484375 -1.15625 1.4375q-0.359375 0.953125 -0.359375 2.75l0 6.8125l-2.21875 0zm29.661026 -1.625q-1.234375 1.0625 -2.375 1.5q-1.140625 0.421875 -2.453125 0.421875q-2.171875 0 -3.328125 -1.046875q-1.15625 -1.0625 -1.15625 -2.71875q0 -0.953125 0.4375 -1.75q0.4375 -0.796875 1.140625 -1.28125q0.71875 -0.484375 1.609375 -0.734375q0.65625 -0.171875 1.96875 -0.328125q2.703125 -0.328125 3.96875 -0.765625q0.015625 -0.46875 0.015625 -0.59375q0 -1.359375 -0.625 -1.90625q-0.859375 -0.765625 -2.53125 -0.765625q-1.578125 0 -2.328125 0.5625q-0.75 0.546875 -1.109375 1.9375l-2.171875 -0.296875q0.296875 -1.390625 0.96875 -2.25q0.6875 -0.859375 1.96875 -1.328125q1.296875 -0.46875 2.984375 -0.46875q1.6875 0 2.734375 0.40625q1.046875 0.390625 1.546875 1.0q0.5 0.59375 0.6875 1.5q0.125 0.578125 0.125 2.0625l0 2.96875q0 3.09375 0.140625 3.921875q0.140625 0.828125 0.5625 1.578125l-2.328125 0q-0.34375 -0.6875 -0.453125 -1.625zm-0.1875 -4.96875q-1.203125 0.5 -3.625 0.84375q-1.375 0.203125 -1.953125 0.453125q-0.5625 0.234375 -0.875 0.71875q-0.296875 0.46875 -0.296875 1.046875q0 0.890625 0.671875 1.484375q0.671875 0.59375 1.96875 0.59375q1.28125 0 2.28125 -0.5625q1.0 -0.5625 1.484375 -1.53125q0.34375 -0.75 0.34375 -2.234375l0 -0.8125zm5.7269287 -8.984375l0 -2.546875l2.21875 0l0 2.546875l-2.21875 0zm0 15.578125l0 -13.140625l2.21875 0l0 13.140625l-2.21875 0zm4.7833557 -6.5625q0 -3.65625 2.03125 -5.40625q1.6875 -1.46875 4.125 -1.46875q2.703125 0 4.421875 1.78125q1.71875 1.78125 1.71875 4.90625q0 2.53125 -0.765625 3.984375q-0.75 1.453125 -2.203125 2.265625q-1.453125 0.796875 -3.171875 0.796875q-2.765625 0 -4.46875 -1.765625q-1.6875 -1.765625 -1.6875 -5.09375zm2.28125 0q0 2.515625 1.09375 3.78125q1.109375 1.25 2.78125 1.25q1.65625 0 2.75 -1.265625q1.109375 -1.265625 1.109375 -3.84375q0 -2.4375 -1.109375 -3.6875q-1.109375 -1.265625 -2.75 -1.265625q-1.671875 0 -2.78125 1.25q-1.09375 1.25 -1.09375 3.78125zm12.601929 6.5625l0 -13.140625l2.0 0l0 2.0q0.78125 -1.40625 1.421875 -1.84375q0.65625 -0.453125 1.4375 -0.453125q1.125 0 2.28125 0.71875l-0.765625 2.078125q-0.8125 -0.484375 -1.640625 -0.484375q-0.71875 0 -1.3125 0.4375q-0.578125 0.4375 -0.828125 1.21875q-0.359375 1.1875 -0.359375 2.59375l0 6.875l-2.234375 0zm15.518295 -15.578125l0 -2.546875l2.21875 0l0 2.546875l-2.21875 0zm0 15.578125l0 -13.140625l2.21875 0l0 13.140625l-2.21875 0zm5.611511 0l0 -13.140625l2.0 0l0 1.875q1.453125 -2.171875 4.1875 -2.171875q1.1875 0 2.171875 0.4375q1.0 0.421875 1.484375 1.125q0.5 0.6875 0.703125 1.640625q0.125 0.609375 0.125 2.15625l0 8.078125l-2.234375 0l0 -7.984375q0 -1.359375 -0.265625 -2.03125q-0.25 -0.6875 -0.90625 -1.078125q-0.65625 -0.40625 -1.546875 -0.40625q-1.421875 0 -2.46875 0.90625q-1.03125 0.890625 -1.03125 3.421875l0 7.171875l-2.21875 0zm14.101929 -15.578125l0 -2.546875l2.21875 0l0 2.546875l-2.21875 0zm0 15.578125l0 -13.140625l2.21875 0l0 13.140625l-2.21875 0zm5.61145 0l0 -13.140625l1.984375 0l0 1.84375q0.625 -0.953125 1.640625 -1.546875q1.03125 -0.59375 2.34375 -0.59375q1.46875 0 2.390625 0.609375q0.9375 0.609375 1.328125 1.703125q1.546875 -2.3125 4.046875 -2.3125q1.953125 0 3.0 1.09375q1.0625 1.078125 1.0625 3.328125l0 9.015625l-2.21875 0l0 -8.28125q0 -1.328125 -0.21875 -1.90625q-0.21875 -0.59375 -0.78125 -0.953125q-0.5625 -0.359375 -1.328125 -0.359375q-1.390625 0 -2.3125 0.921875q-0.90625 0.921875 -0.90625 2.953125l0 7.625l-2.234375 0l0 -8.53125q0 -1.484375 -0.546875 -2.21875q-0.53125 -0.75 -1.78125 -0.75q-0.9375 0 -1.734375 0.5q-0.796875 0.484375 -1.15625 1.4375q-0.359375 0.953125 -0.359375 2.75l0 6.8125l-2.21875 0zm21.114166 -15.578125l0 -2.546875l2.21875 0l0 2.546875l-2.21875 0zm0 15.578125l0 -13.140625l2.21875 0l0 13.140625l-2.21875 0zm5.2052307 1.09375l2.15625 0.3125q0.140625 1.0 0.765625 1.46875q0.828125 0.609375 2.25 0.609375q1.546875 0 2.390625 -0.625q0.84375 -0.609375 1.140625 -1.71875q0.171875 -0.6875 0.15625 -2.859375q-1.453125 1.71875 -3.625 1.71875q-2.71875 0 -4.203125 -1.953125q-1.484375 -1.953125 -1.484375 -4.6875q0 -1.875 0.671875 -3.46875q0.6875 -1.59375 1.984375 -2.453125q1.296875 -0.875 3.03125 -0.875q2.328125 0 3.84375 1.890625l0 -1.59375l2.046875 0l0 11.359375q0 3.0625 -0.625 4.34375q-0.625 1.28125 -1.984375 2.015625q-1.34375 0.75 -3.328125 0.75q-2.34375 0 -3.796875 -1.0625q-1.4375 -1.046875 -1.390625 -3.171875zm1.84375 -7.890625q0 2.578125 1.015625 3.765625q1.03125 1.1875 2.578125 1.1875q1.53125 0 2.5625 -1.171875q1.046875 -1.1875 1.046875 -3.71875q0 -2.40625 -1.078125 -3.625q-1.0625 -1.234375 -2.5625 -1.234375q-1.484375 0 -2.53125 1.21875q-1.03125 1.203125 -1.03125 3.578125zm11.820679 0.234375q0 -3.65625 2.03125 -5.40625q1.6875 -1.46875 4.125 -1.46875q2.703125 0 4.421875 1.78125q1.71875 1.78125 1.71875 4.90625q0 2.53125 -0.765625 3.984375q-0.75 1.453125 -2.203125 2.265625q-1.453125 0.796875 -3.171875 0.796875q-2.765625 0 -4.46875 -1.765625q-1.6875 -1.765625 -1.6875 -5.09375zm2.28125 0q0 2.515625 1.09375 3.78125q1.109375 1.25 2.78125 1.25q1.65625 0 2.75 -1.265625q1.109375 -1.265625 1.109375 -3.84375q0 -2.4375 -1.109375 -3.6875q-1.109375 -1.265625 -2.75 -1.265625q-1.671875 0 -2.78125 1.25q-1.09375 1.25 -1.09375 3.78125zm28.185791 6.5625l0 -1.65625q-1.25 1.953125 -3.671875 1.953125q-1.5625 0 -2.890625 -0.859375q-1.3125 -0.875 -2.046875 -2.421875q-0.71875 -1.546875 -0.71875 -3.5625q0 -1.96875 0.65625 -3.5625q0.65625 -1.609375 1.96875 -2.46875q1.3125 -0.859375 2.9375 -0.859375q1.1875 0 2.109375 0.515625q0.9375 0.5 1.515625 1.296875l0 -6.5l2.203125 0l0 18.125l-2.0625 0zm-7.03125 -6.546875q0 2.515625 1.0625 3.765625q1.0625 1.25 2.515625 1.25q1.453125 0 2.46875 -1.1875q1.03125 -1.203125 1.03125 -3.65625q0 -2.6875 -1.046875 -3.953125q-1.03125 -1.265625 -2.5625 -1.265625q-1.484375 0 -2.484375 1.21875q-0.984375 1.203125 -0.984375 3.828125zm11.773804 -0.015625q0 -3.65625 2.03125 -5.40625q1.6875 -1.46875 4.125 -1.46875q2.703125 0 4.421875 1.78125q1.71875 1.78125 1.71875 4.90625q0 2.53125 -0.765625 3.984375q-0.75 1.453125 -2.203125 2.265625q-1.453125 0.796875 -3.171875 0.796875q-2.765625 0 -4.46875 -1.765625q-1.6875 -1.765625 -1.6875 -5.09375zm2.28125 0q0 2.515625 1.09375 3.78125q1.109375 1.25 2.78125 1.25q1.65625 0 2.75 -1.265625q1.109375 -1.265625 1.109375 -3.84375q0 -2.4375 -1.109375 -3.6875q-1.109375 -1.265625 -2.75 -1.265625q-1.671875 0 -2.78125 1.25q-1.09375 1.25 -1.09375 3.78125zm23.123291 6.5625l-4.8125 -18.125l2.453125 0l2.765625 11.875q0.4375 1.875 0.765625 3.71875q0.6875 -2.90625 0.8125 -3.359375l3.453125 -12.234375l2.890625 0l2.59375 9.171875q0.984375 3.40625 1.421875 6.421875q0.34375 -1.71875 0.890625 -3.953125l2.84375 -11.640625l2.421875 0l-4.96875 18.125l-2.3125 0l-3.828125 -13.8125q-0.484375 -1.734375 -0.5625 -2.125q-0.296875 1.25 -0.53125 2.125l-3.859375 13.8125l-2.4375 0zm28.979462 -4.234375l2.296875 0.296875q-0.53125 2.015625 -2.015625 3.125q-1.46875 1.109375 -3.75 1.109375q-2.890625 0 -4.578125 -1.765625q-1.6875 -1.78125 -1.6875 -4.984375q0 -3.3125 1.703125 -5.140625q1.71875 -1.84375 4.4375 -1.84375q2.640625 0 4.296875 1.796875q1.671875 1.796875 1.671875 5.046875q0 0.203125 -0.015625 0.59375l-9.78125 0q0.109375 2.171875 1.203125 3.328125q1.109375 1.140625 2.765625 1.140625q1.21875 0 2.078125 -0.640625q0.875 -0.640625 1.375 -2.0625zm-7.3125 -3.59375l7.34375 0q-0.15625 -1.65625 -0.84375 -2.484375q-1.0625 -1.28125 -2.75 -1.28125q-1.546875 0 -2.59375 1.03125q-1.03125 1.015625 -1.15625 2.734375zm14.461304 7.828125l-2.0625 0l0 -18.125l2.234375 0l0 6.46875q1.40625 -1.78125 3.59375 -1.78125q1.203125 0 2.28125 0.5q1.09375 0.484375 1.78125 1.375q0.703125 0.875 1.09375 2.125q0.40625 1.25 0.40625 2.671875q0 3.375 -1.671875 5.21875q-1.671875 1.84375 -4.0 1.84375q-2.328125 0 -3.65625 -1.9375l0 1.640625zm-0.015625 -6.671875q0 2.375 0.640625 3.421875q1.046875 1.71875 2.84375 1.71875q1.453125 0 2.515625 -1.265625q1.0625 -1.265625 1.0625 -3.78125q0 -2.578125 -1.015625 -3.796875q-1.015625 -1.21875 -2.46875 -1.21875q-1.453125 0 -2.515625 1.265625q-1.0625 1.265625 -1.0625 3.65625zm18.56076 0.84375l2.265625 -0.1875q0.15625 1.359375 0.734375 2.234375q0.59375 0.859375 1.828125 1.40625q1.234375 0.53125 2.78125 0.53125q1.375 0 2.421875 -0.40625q1.0625 -0.40625 1.5625 -1.109375q0.515625 -0.71875 0.515625 -1.5625q0 -0.859375 -0.5 -1.484375q-0.484375 -0.640625 -1.625 -1.078125q-0.71875 -0.28125 -3.21875 -0.875q-2.5 -0.609375 -3.5 -1.140625q-1.296875 -0.671875 -1.9375 -1.671875q-0.640625 -1.015625 -0.640625 -2.265625q0 -1.375 0.78125 -2.5625q0.78125 -1.203125 2.265625 -1.8125q1.5 -0.625 3.34375 -0.625q2.015625 0 3.546875 0.65625q1.546875 0.640625 2.375 1.90625q0.828125 1.25 0.890625 2.859375l-2.3125 0.171875q-0.171875 -1.71875 -1.25 -2.59375q-1.0625 -0.890625 -3.15625 -0.890625q-2.171875 0 -3.171875 0.796875q-1.0 0.796875 -1.0 1.921875q0 0.984375 0.703125 1.609375q0.703125 0.640625 3.625 1.296875q2.921875 0.65625 4.015625 1.15625q1.578125 0.734375 2.328125 1.859375q0.765625 1.109375 0.765625 2.5625q0 1.453125 -0.84375 2.734375q-0.828125 1.28125 -2.375 2.0q-1.546875 0.703125 -3.484375 0.703125q-2.46875 0 -4.140625 -0.71875q-1.65625 -0.71875 -2.609375 -2.15625q-0.9375 -1.4375 -0.984375 -3.265625zm25.987427 1.015625l2.1875 0.28125q-0.34375 2.265625 -1.828125 3.546875q-1.484375 1.28125 -3.625 1.28125q-2.703125 0 -4.34375 -1.765625q-1.640625 -1.765625 -1.640625 -5.046875q0 -2.125 0.703125 -3.71875q0.71875 -1.59375 2.15625 -2.390625q1.4375 -0.8125 3.125 -0.8125q2.140625 0 3.5 1.09375q1.359375 1.078125 1.75 3.0625l-2.171875 0.34375q-0.296875 -1.328125 -1.09375 -1.984375q-0.78125 -0.671875 -1.890625 -0.671875q-1.6875 0 -2.734375 1.203125q-1.046875 1.203125 -1.046875 3.8125q0 2.640625 1.015625 3.84375q1.015625 1.203125 2.640625 1.203125q1.3125 0 2.1875 -0.796875q0.875 -0.8125 1.109375 -2.484375zm4.0703125 4.8125l0 -13.140625l2.0 0l0 2.0q0.78125 -1.40625 1.421875 -1.84375q0.65625 -0.453125 1.4375 -0.453125q1.125 0 2.28125 0.71875l-0.765625 2.078125q-0.8125 -0.484375 -1.640625 -0.484375q-0.71875 0 -1.3125 0.4375q-0.578125 0.4375 -0.828125 1.21875q-0.359375 1.1875 -0.359375 2.59375l0 6.875l-2.234375 0zm17.028198 -1.625q-1.234375 1.0625 -2.375 1.5q-1.140625 0.421875 -2.453125 0.421875q-2.171875 0 -3.328125 -1.046875q-1.15625 -1.0625 -1.15625 -2.71875q0 -0.953125 0.4375 -1.75q0.4375 -0.796875 1.140625 -1.28125q0.71875 -0.484375 1.609375 -0.734375q0.65625 -0.171875 1.96875 -0.328125q2.703125 -0.328125 3.96875 -0.765625q0.015625 -0.46875 0.015625 -0.59375q0 -1.359375 -0.625 -1.90625q-0.859375 -0.765625 -2.53125 -0.765625q-1.578125 0 -2.328125 0.5625q-0.75 0.546875 -1.109375 1.9375l-2.171875 -0.296875q0.296875 -1.390625 0.96875 -2.25q0.6875 -0.859375 1.96875 -1.328125q1.296875 -0.46875 2.984375 -0.46875q1.6875 0 2.734375 0.40625q1.046875 0.390625 1.546875 1.0q0.5 0.59375 0.6875 1.5q0.125 0.578125 0.125 2.0625l0 2.96875q0 3.09375 0.140625 3.921875q0.140625 0.828125 0.5625 1.578125l-2.328125 0q-0.34375 -0.6875 -0.453125 -1.625zm-0.1875 -4.96875q-1.203125 0.5 -3.625 0.84375q-1.375 0.203125 -1.953125 0.453125q-0.5625 0.234375 -0.875 0.71875q-0.296875 0.46875 -0.296875 1.046875q0 0.890625 0.671875 1.484375q0.671875 0.59375 1.96875 0.59375q1.28125 0 2.28125 -0.5625q1.0 -0.5625 1.484375 -1.53125q0.34375 -0.75 0.34375 -2.234375l0 -0.8125zm5.7113037 11.625l0 -18.171875l2.03125 0l0 1.71875q0.71875 -1.0 1.609375 -1.5q0.90625 -0.515625 2.1875 -0.515625q1.6875 0 2.96875 0.875q1.296875 0.859375 1.953125 2.4375q0.65625 1.578125 0.65625 3.453125q0 2.015625 -0.734375 3.640625q-0.71875 1.609375 -2.09375 2.46875q-1.375 0.859375 -2.90625 0.859375q-1.109375 0 -2.0 -0.46875q-0.875 -0.46875 -1.453125 -1.1875l0 6.390625l-2.21875 0zm2.015625 -11.53125q0 2.546875 1.015625 3.765625q1.03125 1.203125 2.5 1.203125q1.484375 0 2.53125 -1.25q1.0625 -1.265625 1.0625 -3.890625q0 -2.515625 -1.03125 -3.765625q-1.03125 -1.25 -2.46875 -1.25q-1.421875 0 -2.515625 1.328125q-1.09375 1.328125 -1.09375 3.859375zm12.086304 -9.078125l0 -2.546875l2.21875 0l0 2.546875l-2.21875 0zm0 15.578125l0 -13.140625l2.21875 0l0 13.140625l-2.21875 0zm5.6114807 0l0 -13.140625l2.0000305 0l0 1.875q1.453125 -2.171875 4.1875 -2.171875q1.1875 0 2.171875 0.4375q1.0 0.421875 1.484375 1.125q0.5 0.6875 0.703125 1.640625q0.125 0.609375 0.125 2.15625l0 8.078125l-2.234375 0l0 -7.984375q0 -1.359375 -0.265625 -2.03125q-0.25 -0.6875 -0.90625 -1.078125q-0.65625 -0.40625 -1.546875 -0.40625q-1.421875 0 -2.46875 0.90625q-1.03125 0.890625 -1.03125 3.421875l0 7.171875l-2.2187805 0zm13.680084 1.09375l2.15625 0.3125q0.140625 1.0 0.765625 1.46875q0.828125 0.609375 2.25 0.609375q1.546875 0 2.390625 -0.625q0.84375 -0.609375 1.140625 -1.71875q0.171875 -0.6875 0.15625 -2.859375q-1.453125 1.71875 -3.625 1.71875q-2.71875 0 -4.203125 -1.953125q-1.484375 -1.953125 -1.484375 -4.6875q0 -1.875 0.671875 -3.46875q0.6875 -1.59375 1.984375 -2.453125q1.296875 -0.875 3.03125 -0.875q2.328125 0 3.84375 1.890625l0 -1.59375l2.046875 0l0 11.359375q0 3.0625 -0.625 4.34375q-0.625 1.28125 -1.984375 2.015625q-1.34375 0.75 -3.328125 0.75q-2.34375 0 -3.796875 -1.0625q-1.4375 -1.046875 -1.390625 -3.171875zm1.84375 -7.890625q0 2.578125 1.015625 3.765625q1.03125 1.1875 2.578125 1.1875q1.53125 0 2.5625 -1.171875q1.046875 -1.1875 1.046875 -3.71875q0 -2.40625 -1.078125 -3.625q-1.0625 -1.234375 -2.5625 -1.234375q-1.484375 0 -2.53125 1.21875q-1.03125 1.203125 -1.03125 3.578125z" fill-rule="nonzero"/><path fill="#ffffff" d="m25.357956 207.25066q1.359375 0 2.671875 0.703125q1.3125 0.703125 2.03125 2.015625q0.734375 1.3125 0.734375 2.734375q0 2.25 -1.59375 3.859375q-1.59375 1.59375 -3.84375 1.59375q-2.265625 0 -3.859375 -1.59375q-1.59375 -1.609375 -1.59375 -3.859375q0 -1.4375 0.71875 -2.734375q0.734375 -1.3125 2.046875 -2.015625q1.3125 -0.703125 2.6875 -0.703125z" fill-rule="nonzero"/><path fill="#ffffff" d="m62.125 219.8444l-4.8125 -18.125l2.453125 0l2.765625 11.875q0.4375 1.875 0.765625 3.71875q0.6875 -2.90625 0.8125 -3.359375l3.453125 -12.234375l2.890625 0l2.59375 9.171875q0.984375 3.40625 1.421875 6.421875q0.34375 -1.71875 0.890625 -3.953125l2.84375 -11.640625l2.421875 0l-4.96875 18.125l-2.3125 0l-3.828125 -13.8125q-0.484375 -1.734375 -0.5625 -2.125q-0.296875 1.25 -0.53125 2.125l-3.859375 13.8125l-2.4375 0zm28.979462 -4.234375l2.296875 0.296875q-0.53125 2.015625 -2.015625 3.125q-1.46875 1.109375 -3.75 1.109375q-2.890625 0 -4.578125 -1.765625q-1.6875 -1.78125 -1.6875 -4.984375q0 -3.3125 1.703125 -5.140625q1.71875 -1.84375 4.4375 -1.84375q2.640625 0 4.296875 1.796875q1.671875 1.796875 1.671875 5.046875q0 0.203125 -0.015625 0.59375l-9.78125 0q0.109375 2.171875 1.203125 3.328125q1.109375 1.140625 2.765625 1.140625q1.21875 0 2.078125 -0.640625q0.875 -0.640625 1.375 -2.0625zm-7.3125 -3.59375l7.34375 0q-0.15625 -1.65625 -0.84375 -2.484375q-1.0625 -1.28125 -2.75 -1.28125q-1.546875 0 -2.59375 1.03125q-1.03125 1.015625 -1.15625 2.734375zm14.461304 7.828125l-2.0625 0l0 -18.125l2.234375 0l0 6.46875q1.40625 -1.78125 3.59375 -1.78125q1.203125 0 2.28125 0.5q1.09375 0.484375 1.78125 1.375q0.703125 0.875 1.09375 2.125q0.40625 1.25 0.40625 2.671875q0 3.375 -1.671875 5.21875q-1.671875 1.84375 -4.0 1.84375q-2.328125 0 -3.65625 -1.9375l0 1.640625zm-0.015625 -6.671875q0 2.375 0.640625 3.421875q1.046875 1.71875 2.84375 1.71875q1.453125 0 2.515625 -1.265625q1.0625 -1.265625 1.0625 -3.78125q0 -2.578125 -1.015625 -3.796875q-1.015625 -1.21875 -2.46875 -1.21875q-1.453125 0 -2.515625 1.265625q-1.0625 1.265625 -1.0625 3.65625zm18.560776 0.84375l2.265625 -0.1875q0.15625 1.359375 0.734375 2.234375q0.59375 0.859375 1.828125 1.40625q1.234375 0.53125 2.78125 0.53125q1.375 0 2.421875 -0.40625q1.0625 -0.40625 1.5625 -1.109375q0.515625 -0.71875 0.515625 -1.5625q0 -0.859375 -0.5 -1.484375q-0.484375 -0.640625 -1.625 -1.078125q-0.71875 -0.28125 -3.21875 -0.875q-2.5 -0.609375 -3.5 -1.140625q-1.296875 -0.671875 -1.9375 -1.671875q-0.640625 -1.015625 -0.640625 -2.265625q0 -1.375 0.78125 -2.5625q0.78125 -1.203125 2.265625 -1.8125q1.5 -0.625 3.34375 -0.625q2.015625 0 3.546875 0.65625q1.546875 0.640625 2.375 1.90625q0.828125 1.25 0.890625 2.859375l-2.3125 0.171875q-0.171875 -1.71875 -1.25 -2.59375q-1.0625 -0.890625 -3.15625 -0.890625q-2.171875 0 -3.171875 0.796875q-1.0 0.796875 -1.0 1.921875q0 0.984375 0.703125 1.609375q0.703125 0.640625 3.625 1.296875q2.921875 0.65625 4.015625 1.15625q1.578125 0.734375 2.328125 1.859375q0.765625 1.109375 0.765625 2.5625q0 1.453125 -0.84375 2.734375q-0.828125 1.28125 -2.375 2.0q-1.546875 0.703125 -3.484375 0.703125q-2.46875 0 -4.140625 -0.71875q-1.65625 -0.71875 -2.609375 -2.15625q-0.9375 -1.4375 -0.984375 -3.265625zm25.987411 1.015625l2.1875 0.28125q-0.34375 2.265625 -1.828125 3.546875q-1.484375 1.28125 -3.625 1.28125q-2.703125 0 -4.34375 -1.765625q-1.640625 -1.765625 -1.640625 -5.046875q0 -2.125 0.703125 -3.71875q0.71875 -1.59375 2.15625 -2.390625q1.4375 -0.8125 3.125 -0.8125q2.140625 0 3.5 1.09375q1.359375 1.078125 1.75 3.0625l-2.171875 0.34375q-0.296875 -1.328125 -1.09375 -1.984375q-0.78125 -0.671875 -1.890625 -0.671875q-1.6875 0 -2.734375 1.203125q-1.046875 1.203125 -1.046875 3.8125q0 2.640625 1.015625 3.84375q1.015625 1.203125 2.640625 1.203125q1.3125 0 2.1875 -0.796875q0.875 -0.8125 1.109375 -2.484375zm4.0703125 4.8125l0 -13.140625l2.0 0l0 2.0q0.78125 -1.40625 1.421875 -1.84375q0.65625 -0.453125 1.4375 -0.453125q1.125 0 2.28125 0.71875l-0.765625 2.078125q-0.8125 -0.484375 -1.640625 -0.484375q-0.71875 0 -1.3125 0.4375q-0.578125 0.4375 -0.828125 1.21875q-0.359375 1.1875 -0.359375 2.59375l0 6.875l-2.234375 0zm17.028214 -1.625q-1.234375 1.0625 -2.375 1.5q-1.140625 0.421875 -2.453125 0.421875q-2.171875 0 -3.328125 -1.046875q-1.15625 -1.0625 -1.15625 -2.71875q0 -0.953125 0.4375 -1.75q0.4375 -0.796875 1.140625 -1.28125q0.71875 -0.484375 1.609375 -0.734375q0.65625 -0.171875 1.96875 -0.328125q2.703125 -0.328125 3.96875 -0.765625q0.015625 -0.46875 0.015625 -0.59375q0 -1.359375 -0.625 -1.90625q-0.859375 -0.765625 -2.53125 -0.765625q-1.578125 0 -2.328125 0.5625q-0.75 0.546875 -1.109375 1.9375l-2.171875 -0.296875q0.296875 -1.390625 0.96875 -2.25q0.6875 -0.859375 1.96875 -1.328125q1.296875 -0.46875 2.984375 -0.46875q1.6875 0 2.734375 0.40625q1.046875 0.390625 1.546875 1.0q0.5 0.59375 0.6875 1.5q0.125 0.578125 0.125 2.0625l0 2.96875q0 3.09375 0.140625 3.921875q0.140625 0.828125 0.5625 1.578125l-2.328125 0q-0.34375 -0.6875 -0.453125 -1.625zm-0.1875 -4.96875q-1.203125 0.5 -3.625 0.84375q-1.375 0.203125 -1.953125 0.453125q-0.5625 0.234375 -0.875 0.71875q-0.296875 0.46875 -0.296875 1.046875q0 0.890625 0.671875 1.484375q0.671875 0.59375 1.96875 0.59375q1.28125 0 2.28125 -0.5625q1.0 -0.5625 1.484375 -1.53125q0.34375 -0.75 0.34375 -2.234375l0 -0.8125zm5.7113037 11.625l0 -18.171875l2.03125 0l0 1.71875q0.71875 -1.0 1.609375 -1.5q0.90625 -0.515625 2.1875 -0.515625q1.6875 0 2.96875 0.875q1.296875 0.859375 1.953125 2.4375q0.65625 1.578125 0.65625 3.453125q0 2.015625 -0.734375 3.640625q-0.71875 1.609375 -2.09375 2.46875q-1.375 0.859375 -2.90625 0.859375q-1.109375 0 -2.0 -0.46875q-0.875 -0.46875 -1.453125 -1.1875l0 6.390625l-2.21875 0zm2.015625 -11.53125q0 2.546875 1.015625 3.765625q1.03125 1.203125 2.5 1.203125q1.484375 0 2.53125 -1.25q1.0625 -1.265625 1.0625 -3.890625q0 -2.515625 -1.03125 -3.765625q-1.03125 -1.25 -2.46875 -1.25q-1.421875 0 -2.515625 1.328125q-1.09375 1.328125 -1.09375 3.859375zm12.086304 -9.078125l0 -2.546875l2.21875 0l0 2.546875l-2.21875 0zm0 15.578125l0 -13.140625l2.21875 0l0 13.140625l-2.21875 0zm5.6114807 0l0 -13.140625l2.0 0l0 1.875q1.453125 -2.171875 4.1875 -2.171875q1.1875 0 2.171875 0.4375q1.0 0.421875 1.484375 1.125q0.5 0.6875 0.703125 1.640625q0.125 0.609375 0.125 2.15625l0 8.078125l-2.234375 0l0 -7.984375q0 -1.359375 -0.265625 -2.03125q-0.25 -0.6875 -0.90625 -1.078125q-0.65625 -0.40625 -1.546875 -0.40625q-1.421875 0 -2.46875 0.90625q-1.03125 0.890625 -1.03125 3.421875l0 7.171875l-2.21875 0zm13.680054 1.09375l2.15625 0.3125q0.140625 1.0 0.765625 1.46875q0.828125 0.609375 2.25 0.609375q1.546875 0 2.390625 -0.625q0.84375 -0.609375 1.140625 -1.71875q0.171875 -0.6875 0.15625 -2.859375q-1.453125 1.71875 -3.625 1.71875q-2.71875 0 -4.203125 -1.953125q-1.484375 -1.953125 -1.484375 -4.6875q0 -1.875 0.671875 -3.46875q0.6875 -1.59375 1.984375 -2.453125q1.296875 -0.875 3.03125 -0.875q2.328125 0 3.84375 1.890625l0 -1.59375l2.046875 0l0 11.359375q0 3.0625 -0.625 4.34375q-0.625 1.28125 -1.984375 2.015625q-1.34375 0.75 -3.328125 0.75q-2.34375 0 -3.796875 -1.0625q-1.4375 -1.046875 -1.390625 -3.171875zm1.84375 -7.890625q0 2.578125 1.015625 3.765625q1.03125 1.1875 2.578125 1.1875q1.53125 0 2.5625 -1.171875q1.046875 -1.1875 1.046875 -3.71875q0 -2.40625 -1.078125 -3.625q-1.0625 -1.234375 -2.5625 -1.234375q-1.484375 0 -2.53125 1.21875q-1.03125 1.203125 -1.03125 3.578125zm13.258179 -3.796875l0 -2.546875l2.546875 0l0 2.546875l-2.546875 0zm0 10.59375l0 -2.53125l2.546875 0l0 2.53125l-2.546875 0zm13.417694 0l0 -18.125l2.21875 0l0 18.125l-2.21875 0zm14.658356 -4.234375l2.296875 0.296875q-0.53125 2.015625 -2.015625 3.125q-1.46875 1.109375 -3.75 1.109375q-2.890625 0 -4.578125 -1.765625q-1.6875 -1.78125 -1.6875 -4.984375q0 -3.3125 1.703125 -5.140625q1.71875 -1.84375 4.4375 -1.84375q2.640625 0 4.296875 1.796875q1.671875 1.796875 1.671875 5.046875q0 0.203125 -0.015625 0.59375l-9.78125 0q0.109375 2.171875 1.203125 3.328125q1.109375 1.140625 2.765625 1.140625q1.21875 0 2.078125 -0.640625q0.875 -0.640625 1.375 -2.0625zm-7.3125 -3.59375l7.34375 0q-0.15625 -1.65625 -0.84375 -2.484375q-1.0625 -1.28125 -2.75 -1.28125q-1.546875 0 -2.59375 1.03125q-1.03125 1.015625 -1.15625 2.734375zm12.008179 8.921875l2.15625 0.3125q0.140625 1.0 0.765625 1.46875q0.828125 0.609375 2.25 0.609375q1.5468903 0 2.3906403 -0.625q0.84375 -0.609375 1.140625 -1.71875q0.171875 -0.6875 0.15625 -2.859375q-1.453125 1.71875 -3.6250153 1.71875q-2.71875 0 -4.203125 -1.953125q-1.484375 -1.953125 -1.484375 -4.6875q0 -1.875 0.671875 -3.46875q0.6875 -1.59375 1.984375 -2.453125q1.296875 -0.875 3.03125 -0.875q2.3281403 0 3.8437653 1.890625l0 -1.59375l2.046875 0l0 11.359375q0 3.0625 -0.625 4.34375q-0.625 1.28125 -1.984375 2.015625q-1.34375 0.75 -3.3281403 0.75q-2.34375 0 -3.796875 -1.0625q-1.4375 -1.046875 -1.390625 -3.171875zm1.84375 -7.890625q0 2.578125 1.015625 3.765625q1.03125 1.1875 2.5781403 1.1875q1.53125 0 2.5625 -1.171875q1.046875 -1.1875 1.046875 -3.71875q0 -2.40625 -1.078125 -3.625q-1.0625 -1.234375 -2.5625 -1.234375q-1.4843903 0 -2.5312653 1.21875q-1.03125 1.203125 -1.03125 3.578125zm21.211319 5.171875q-1.234375 1.0625 -2.375 1.5q-1.140625 0.421875 -2.453125 0.421875q-2.171875 0 -3.328125 -1.046875q-1.15625 -1.0625 -1.15625 -2.71875q0 -0.953125 0.4375 -1.75q0.4375 -0.796875 1.140625 -1.28125q0.71875 -0.484375 1.609375 -0.734375q0.65625 -0.171875 1.96875 -0.328125q2.703125 -0.328125 3.96875 -0.765625q0.015625 -0.46875 0.015625 -0.59375q0 -1.359375 -0.625 -1.90625q-0.859375 -0.765625 -2.53125 -0.765625q-1.578125 0 -2.328125 0.5625q-0.75 0.546875 -1.109375 1.9375l-2.171875 -0.296875q0.296875 -1.390625 0.96875 -2.25q0.6875 -0.859375 1.96875 -1.328125q1.296875 -0.46875 2.984375 -0.46875q1.6875 0 2.734375 0.40625q1.046875 0.390625 1.546875 1.0q0.5 0.59375 0.6875 1.5q0.125 0.578125 0.125 2.0625l0 2.96875q0 3.09375 0.140625 3.921875q0.140625 0.828125 0.5625 1.578125l-2.328125 0q-0.34375 -0.6875 -0.453125 -1.625zm-0.1875 -4.96875q-1.203125 0.5 -3.625 0.84375q-1.375 0.203125 -1.953125 0.453125q-0.5625 0.234375 -0.875 0.71875q-0.296875 0.46875 -0.296875 1.046875q0 0.890625 0.671875 1.484375q0.671875 0.59375 1.96875 0.59375q1.28125 0 2.28125 -0.5625q1.0 -0.5625 1.484375 -1.53125q0.34375 -0.75 0.34375 -2.234375l0 -0.8125zm5.6644287 6.59375l0 -18.125l2.21875 0l0 18.125l-2.21875 0zm11.8828125 -6.5625q0 -3.65625 2.03125 -5.40625q1.6875 -1.46875 4.125 -1.46875q2.703125 0 4.421875 1.78125q1.71875 1.78125 1.71875 4.90625q0 2.53125 -0.765625 3.984375q-0.75 1.453125 -2.203125 2.265625q-1.453125 0.796875 -3.171875 0.796875q-2.765625 0 -4.46875 -1.765625q-1.6875 -1.765625 -1.6875 -5.09375zm2.28125 0q0 2.515625 1.09375 3.78125q1.109375 1.25 2.78125 1.25q1.65625 0 2.75 -1.265625q1.109375 -1.265625 1.109375 -3.84375q0 -2.4375 -1.109375 -3.6875q-1.109375 -1.265625 -2.75 -1.265625q-1.671875 0 -2.78125 1.25q-1.09375 1.25 -1.09375 3.78125zm21.242554 6.5625l0 -1.921875q-1.53125 2.21875 -4.171875 2.21875q-1.15625 0 -2.171875 -0.4375q-1.0 -0.453125 -1.5 -1.125q-0.484375 -0.671875 -0.6875 -1.65625q-0.125 -0.65625 -0.125 -2.078125l0 -8.140625l2.21875 0l0 7.296875q0 1.734375 0.140625 2.34375q0.203125 0.875 0.875 1.375q0.6875 0.5 1.6875 0.5q1.015625 0 1.890625 -0.5q0.875 -0.515625 1.234375 -1.40625q0.375 -0.890625 0.375 -2.5625l0 -7.046875l2.21875 0l0 13.140625l-1.984375 0zm12.513916 0l0 -13.140625l2.0 0l0 1.875q1.453125 -2.171875 4.1875 -2.171875q1.1875 0 2.171875 0.4375q1.0 0.421875 1.484375 1.125q0.5 0.6875 0.703125 1.640625q0.125 0.609375 0.125 2.15625l0 8.078125l-2.234375 0l0 -7.984375q0 -1.359375 -0.265625 -2.03125q-0.25 -0.6875 -0.90625 -1.078125q-0.65625 -0.40625 -1.546875 -0.40625q-1.421875 0 -2.46875 0.90625q-1.03125 0.890625 -1.03125 3.421875l0 7.171875l-2.21875 0zm22.648804 -1.625q-1.234375 1.0625 -2.375 1.5q-1.140625 0.421875 -2.453125 0.421875q-2.171875 0 -3.328125 -1.046875q-1.15625 -1.0625 -1.15625 -2.71875q0 -0.953125 0.4375 -1.75q0.4375 -0.796875 1.140625 -1.28125q0.71875 -0.484375 1.609375 -0.734375q0.65625 -0.171875 1.96875 -0.328125q2.703125 -0.328125 3.96875 -0.765625q0.015625 -0.46875 0.015625 -0.59375q0 -1.359375 -0.625 -1.90625q-0.859375 -0.765625 -2.53125 -0.765625q-1.578125 0 -2.328125 0.5625q-0.75 0.546875 -1.109375 1.9375l-2.171875 -0.296875q0.296875 -1.390625 0.96875 -2.25q0.6875 -0.859375 1.96875 -1.328125q1.296875 -0.46875 2.984375 -0.46875q1.6875 0 2.734375 0.40625q1.046875 0.390625 1.546875 1.0q0.5 0.59375 0.6875 1.5q0.125 0.578125 0.125 2.0625l0 2.96875q0 3.09375 0.140625 3.921875q0.140625 0.828125 0.5625 1.578125l-2.328125 0q-0.34375 -0.6875 -0.453125 -1.625zm-0.1875 -4.96875q-1.203125 0.5 -3.625 0.84375q-1.375 0.203125 -1.953125 0.453125q-0.5625 0.234375 -0.875 0.71875q-0.296875 0.46875 -0.296875 1.046875q0 0.890625 0.671875 1.484375q0.671875 0.59375 1.96875 0.59375q1.28125 0 2.28125 -0.5625q1.0 -0.5625 1.484375 -1.53125q0.34375 -0.75 0.34375 -2.234375l0 -0.8125zm-7.203125 -8.484375q-0.015625 -1.28125 0.703125 -2.046875q0.703125 -0.765625 1.796875 -0.765625q0.765625 0 2.09375 0.65625q0.734375 0.375 1.15625 0.375q0.40625 0 0.609375 -0.21875q0.21875 -0.21875 0.296875 -0.859375l1.609375 0q-0.03125 1.421875 -0.71875 2.125q-0.671875 0.703125 -1.703125 0.703125q-0.78125 0 -2.046875 -0.703125q-0.828125 -0.4375 -1.21875 -0.4375q-0.421875 0 -0.6875 0.296875q-0.265625 0.296875 -0.25 0.875l-1.640625 0zm12.086304 8.515625q0 -3.65625 2.03125 -5.40625q1.6875 -1.46875 4.125 -1.46875q2.703125 0 4.421875 1.78125q1.71875 1.78125 1.71875 4.90625q0 2.53125 -0.765625 3.984375q-0.75 1.453125 -2.203125 2.265625q-1.453125 0.796875 -3.171875 0.796875q-2.765625 0 -4.46875 -1.765625q-1.6875 -1.765625 -1.6875 -5.09375zm2.28125 0q0 2.515625 1.09375 3.78125q1.109375 1.25 2.78125 1.25q1.65625 0 2.75 -1.265625q1.109375 -1.265625 1.109375 -3.84375q0 -2.4375 -1.109375 -3.6875q-1.109375 -1.265625 -2.75 -1.265625q-1.671875 0 -2.78125 1.25q-1.09375 1.25 -1.09375 3.78125zm16.805054 2.09375q-0.015625 -0.4375 -0.015625 -0.65625q0 -1.3125 0.375 -2.265625q0.265625 -0.71875 0.875 -1.453125q0.4375 -0.53125 1.59375 -1.546875q1.15625 -1.03125 1.5 -1.625q0.359375 -0.609375 0.359375 -1.328125q0 -1.296875 -1.015625 -2.28125q-1.015625 -0.984375 -2.484375 -0.984375q-1.421875 0 -2.375 0.890625q-0.953125 0.890625 -1.25 2.78125l-2.296875 -0.265625q0.3125 -2.546875 1.84375 -3.890625q1.53125 -1.34375 4.03125 -1.34375q2.65625 0 4.234375 1.453125q1.59375 1.4375 1.59375 3.484375q0 1.1875 -0.5625 2.203125q-0.546875 1.0 -2.171875 2.421875q-1.09375 0.96875 -1.421875 1.4375q-0.328125 0.453125 -0.5 1.046875q-0.15625 0.59375 -0.171875 1.921875l-2.140625 0zm-0.140625 4.46875l0 -2.53125l2.53125 0l0 2.53125l-2.53125 0zm21.342041 5.328125q-1.84375 -2.328125 -3.125 -5.4375q-1.265625 -3.125 -1.265625 -6.453125q0 -2.953125 0.953125 -5.640625q1.109375 -3.125 3.4375 -6.234375l1.59375 0q-1.5 2.578125 -1.96875 3.671875q-0.765625 1.703125 -1.1875 3.5625q-0.53125 2.3125 -0.53125 4.65625q0 5.9375 3.6875 11.875l-1.59375 0zm9.075073 -5.328125l0 -15.984375l-5.96875 0l0 -2.140625l14.375 0l0 2.140625l-6.0 0l0 15.984375l-2.40625 0zm16.757263 -4.234375l2.296875 0.296875q-0.53125 2.015625 -2.015625 3.125q-1.46875 1.109375 -3.75 1.109375q-2.890625 0 -4.578125 -1.765625q-1.6875 -1.78125 -1.6875 -4.984375q0 -3.3125 1.703125 -5.140625q1.71875 -1.84375 4.4375 -1.84375q2.640625 0 4.296875 1.796875q1.671875 1.796875 1.671875 5.046875q0 0.203125 -0.015625 0.59375l-9.78125 0q0.109375 2.171875 1.203125 3.328125q1.109375 1.140625 2.765625 1.140625q1.21875 0 2.078125 -0.640625q0.875 -0.640625 1.375 -2.0625zm-7.3125 -3.59375l7.34375 0q-0.15625 -1.65625 -0.84375 -2.484375q-1.0625 -1.28125 -2.75 -1.28125q-1.546875 0 -2.59375 1.03125q-1.03125 1.015625 -1.15625 2.734375zm12.383179 7.828125l0 -13.140625l2.0 0l0 2.0q0.78125 -1.40625 1.421875 -1.84375q0.65625 -0.453125 1.4375 -0.453125q1.125 0 2.28125 0.71875l-0.765625 2.078125q-0.8125 -0.484375 -1.640625 -0.484375q-0.71875 0 -1.3125 0.4375q-0.578125 0.4375 -0.828125 1.21875q-0.359375 1.1875 -0.359375 2.59375l0 6.875l-2.234375 0zm8.465698 0l0 -13.140625l1.984375 0l0 1.84375q0.625 -0.953125 1.640625 -1.546875q1.03125 -0.59375 2.34375 -0.59375q1.46875 0 2.390625 0.609375q0.9375 0.609375 1.328125 1.703125q1.546875 -2.3125 4.046875 -2.3125q1.953125 0 3.0 1.09375q1.0625 1.078125 1.0625 3.328125l0 9.015625l-2.21875 0l0 -8.28125q0 -1.328125 -0.21875 -1.90625q-0.21875 -0.59375 -0.78125 -0.953125q-0.5625 -0.359375 -1.328125 -0.359375q-1.390625 0 -2.3125 0.921875q-0.90625 0.921875 -0.90625 2.953125l0 7.625l-2.234375 0l0 -8.53125q0 -1.484375 -0.546875 -2.21875q-0.53125 -0.75 -1.78125 -0.75q-0.9375 0 -1.734375 0.5q-0.796875 0.484375 -1.15625 1.4375q-0.359375 0.953125 -0.359375 2.75l0 6.8125l-2.21875 0zm20.270386 -6.5625q0 -3.65625 2.03125 -5.40625q1.6875 -1.46875 4.125 -1.46875q2.703125 0 4.421875 1.78125q1.71875 1.78125 1.71875 4.90625q0 2.53125 -0.765625 3.984375q-0.75 1.453125 -2.203125 2.265625q-1.453125 0.796875 -3.171875 0.796875q-2.765625 0 -4.46875 -1.765625q-1.6875 -1.765625 -1.6875 -5.09375zm2.28125 0q0 2.515625 1.09375 3.78125q1.109375 1.25 2.78125 1.25q1.65625 0 2.75 -1.265625q1.109375 -1.265625 1.109375 -3.84375q0 -2.4375 -1.109375 -3.6875q-1.109375 -1.265625 -2.75 -1.265625q-1.671875 0 -2.78125 1.25q-1.09375 1.25 -1.09375 3.78125zm11.742554 2.640625l2.203125 -0.34375q0.1875 1.328125 1.03125 2.03125q0.84375 0.703125 2.359375 0.703125q1.546875 0 2.28125 -0.625q0.75 -0.625 0.75 -1.46875q0 -0.75 -0.65625 -1.1875q-0.46875 -0.296875 -2.28125 -0.75q-2.453125 -0.625 -3.40625 -1.078125q-0.9375 -0.453125 -1.421875 -1.25q-0.484375 -0.796875 -0.484375 -1.75q0 -0.890625 0.390625 -1.625q0.40625 -0.75 1.09375 -1.25q0.53125 -0.390625 1.421875 -0.65625q0.890625 -0.265625 1.921875 -0.265625q1.546875 0 2.71875 0.453125q1.171875 0.4375 1.71875 1.203125q0.5625 0.765625 0.765625 2.03125l-2.171875 0.296875q-0.140625 -1.015625 -0.859375 -1.578125q-0.71875 -0.5625 -2.015625 -0.5625q-1.53125 0 -2.1875 0.5q-0.65625 0.5 -0.65625 1.1875q0 0.4375 0.28125 0.78125q0.265625 0.359375 0.84375 0.59375q0.34375 0.125 1.96875 0.5625q2.359375 0.640625 3.296875 1.046875q0.9375 0.390625 1.46875 1.15625q0.53125 0.765625 0.53125 1.90625q0 1.109375 -0.65625 2.09375q-0.640625 0.984375 -1.875 1.53125q-1.21875 0.53125 -2.765625 0.53125q-2.5625 0 -3.90625 -1.0625q-1.328125 -1.0625 -1.703125 -3.15625zm29.1073 3.921875l0 -1.65625q-1.25 1.953125 -3.671875 1.953125q-1.5625 0 -2.890625 -0.859375q-1.3125 -0.875 -2.046875 -2.421875q-0.71875 -1.546875 -0.71875 -3.5625q0 -1.96875 0.65625 -3.5625q0.65625 -1.609375 1.96875 -2.46875q1.3125 -0.859375 2.9375 -0.859375q1.1875 0 2.109375 0.515625q0.9375 0.5 1.515625 1.296875l0 -6.5l2.203125 0l0 18.125l-2.0625 0zm-7.03125 -6.546875q0 2.515625 1.0625 3.765625q1.0625 1.25 2.515625 1.25q1.453125 0 2.46875 -1.1875q1.03125 -1.203125 1.03125 -3.65625q0 -2.6875 -1.046875 -3.953125q-1.03125 -1.265625 -2.5625 -1.265625q-1.484375 0 -2.484375 1.21875q-0.984375 1.203125 -0.984375 3.828125zm21.586304 2.3125l2.296875 0.296875q-0.53125 2.015625 -2.015625 3.125q-1.46875 1.109375 -3.75 1.109375q-2.890625 0 -4.578125 -1.765625q-1.6875 -1.78125 -1.6875 -4.984375q0 -3.3125 1.703125 -5.140625q1.71875 -1.84375 4.4375 -1.84375q2.640625 0 4.296875 1.796875q1.671875 1.796875 1.671875 5.046875q0 0.203125 -0.015625 0.59375l-9.78125 0q0.109375 2.171875 1.203125 3.328125q1.109375 1.140625 2.765625 1.140625q1.21875 0 2.078125 -0.640625q0.875 -0.640625 1.375 -2.0625zm-7.3125 -3.59375l7.34375 0q-0.15625 -1.65625 -0.84375 -2.484375q-1.0625 -1.28125 -2.75 -1.28125q-1.546875 0 -2.59375 1.03125q-1.03125 1.015625 -1.15625 2.734375zm28.060791 7.828125l0 -1.921875q-1.53125 2.21875 -4.171875 2.21875q-1.15625 0 -2.171875 -0.4375q-1.0 -0.453125 -1.5 -1.125q-0.484375 -0.671875 -0.6875 -1.65625q-0.125 -0.65625 -0.125 -2.078125l0 -8.140625l2.21875 0l0 7.296875q0 1.734375 0.140625 2.34375q0.203125 0.875 0.875 1.375q0.6875 0.5 1.6875 0.5q1.015625 0 1.890625 -0.5q0.875 -0.515625 1.234375 -1.40625q0.375 -0.890625 0.375 -2.5625l0 -7.046875l2.21875 0l0 13.140625l-1.984375 0zm4.5863037 -3.921875l2.203125 -0.34375q0.1875 1.328125 1.03125 2.03125q0.84375 0.703125 2.359375 0.703125q1.546875 0 2.28125 -0.625q0.75 -0.625 0.75 -1.46875q0 -0.75 -0.65625 -1.1875q-0.46875 -0.296875 -2.28125 -0.75q-2.453125 -0.625 -3.40625 -1.078125q-0.9375 -0.453125 -1.421875 -1.25q-0.484375 -0.796875 -0.484375 -1.75q0 -0.890625 0.390625 -1.625q0.40625 -0.75 1.09375 -1.25q0.53125 -0.390625 1.421875 -0.65625q0.890625 -0.265625 1.921875 -0.265625q1.546875 0 2.71875 0.453125q1.171875 0.4375 1.71875 1.203125q0.5625 0.765625 0.765625 2.03125l-2.171875 0.296875q-0.140625 -1.015625 -0.859375 -1.578125q-0.71875 -0.5625 -2.015625 -0.5625q-1.53125 0 -2.1875 0.5q-0.65625 0.5 -0.65625 1.1875q0 0.4375 0.28125 0.78125q0.265625 0.359375 0.84375 0.59375q0.34375 0.125 1.96875 0.5625q2.359375 0.640625 3.296875 1.046875q0.9375 0.390625 1.46875 1.15625q0.53125 0.765625 0.53125 1.90625q0 1.109375 -0.65625 2.09375q-0.640625 0.984375 -1.875 1.53125q-1.21875 0.53125 -2.765625 0.53125q-2.5625 0 -3.90625 -1.0625q-1.328125 -1.0625 -1.703125 -3.15625zm12.7265625 -2.640625q0 -3.65625 2.03125 -5.40625q1.6875 -1.46875 4.125 -1.46875q2.703125 0 4.421875 1.78125q1.71875 1.78125 1.71875 4.90625q0 2.53125 -0.765625 3.984375q-0.75 1.453125 -2.203125 2.265625q-1.453125 0.796875 -3.171875 0.796875q-2.765625 0 -4.46875 -1.765625q-1.6875 -1.765625 -1.6875 -5.09375zm2.28125 0q0 2.515625 1.09375 3.78125q1.109375 1.25 2.78125 1.25q1.65625 0 2.75 -1.265625q1.109375 -1.265625 1.109375 -3.84375q0 -2.4375 -1.109375 -3.6875q-1.109375 -1.265625 -2.75 -1.265625q-1.671875 0 -2.78125 1.25q-1.09375 1.25 -1.09375 3.78125zm28.654541 2.328125l2.296875 0.296875q-0.53125 2.015625 -2.015625 3.125q-1.46875 1.109375 -3.75 1.109375q-2.890625 0 -4.578125 -1.765625q-1.6875 -1.78125 -1.6875 -4.984375q0 -3.3125 1.703125 -5.140625q1.71875 -1.84375 4.4375 -1.84375q2.640625 0 4.296875 1.796875q1.671875 1.796875 1.671875 5.046875q0 0.203125 -0.015625 0.59375l-9.78125 0q0.109375 2.171875 1.203125 3.328125q1.109375 1.140625 2.765625 1.140625q1.21875 0 2.078125 -0.640625q0.875 -0.640625 1.375 -2.0625zm-7.3125 -3.59375l7.34375 0q-0.15625 -1.65625 -0.84375 -2.484375q-1.0625 -1.28125 -2.75 -1.28125q-1.546875 0 -2.59375 1.03125q-1.03125 1.015625 -1.15625 2.734375z" fill-rule="nonzero"/><path fill="#ffffff" d="m592.393 219.8444l2.75 -13.140625l1.96875 0l-0.546875 2.6875q1.0 -1.515625 1.96875 -2.25q0.984375 -0.734375 2.0 -0.734375q0.65625 0 1.640625 0.484375l-0.921875 2.078125q-0.578125 -0.421875 -1.265625 -0.421875q-1.171875 0 -2.421875 1.3125q-1.234375 1.3125 -1.9375 4.71875l-1.109375 5.265625l-2.125 0zm8.825073 -4.984375q0 -3.84375 2.265625 -6.375q1.875 -2.078125 4.890625 -2.078125q2.375 0 3.828125 1.484375q1.453125 1.484375 1.453125 4.015625q0 2.265625 -0.921875 4.21875q-0.90625 1.9375 -2.59375 2.984375q-1.6875 1.03125 -3.546875 1.03125q-1.53125 0 -2.796875 -0.65625q-1.25 -0.65625 -1.921875 -1.84375q-0.65625 -1.203125 -0.65625 -2.78125zm2.234375 -0.21875q0 1.859375 0.890625 2.8125q0.890625 0.953125 2.265625 0.953125q0.71875 0 1.421875 -0.28125q0.703125 -0.296875 1.3125 -0.890625q0.609375 -0.59375 1.03125 -1.34375q0.4375 -0.765625 0.6875 -1.65625q0.390625 -1.21875 0.390625 -2.34375q0 -1.78125 -0.90625 -2.765625q-0.890625 -0.984375 -2.25 -0.984375q-1.046875 0 -1.921875 0.5q-0.859375 0.5 -1.5625 1.46875q-0.703125 0.96875 -1.03125 2.25q-0.328125 1.28125 -0.328125 2.28125zm11.461304 5.203125l3.78125 -18.125l2.234375 0l-1.34375 6.46875q1.0625 -0.96875 1.921875 -1.375q0.875 -0.40625 1.8125 -0.40625q1.84375 0 3.0625 1.375q1.234375 1.375 1.234375 4.0q0 1.75 -0.5 3.203125q-0.484375 1.4375 -1.21875 2.421875q-0.71875 0.984375 -1.5 1.578125q-0.78125 0.578125 -1.59375 0.859375q-0.8125 0.296875 -1.578125 0.296875q-1.296875 0 -2.28125 -0.6875q-0.984375 -0.6875 -1.546875 -2.09375l-0.515625 2.484375l-1.96875 0zm3.3125 -5.390625l-0.015625 0.421875q0 1.671875 0.796875 2.5625q0.8125 0.875 2.015625 0.875q1.171875 0 2.15625 -0.8125q0.984375 -0.828125 1.609375 -2.578125q0.640625 -1.75 0.640625 -3.21875q0 -1.65625 -0.8125 -2.5625q-0.796875 -0.921875 -1.96875 -0.921875q-1.203125 0 -2.21875 0.9375q-1.015625 0.9375 -1.703125 2.875q-0.5 1.4375 -0.5 2.421875zm11.164429 0.40625q0 -3.84375 2.265625 -6.375q1.875 -2.078125 4.890625 -2.078125q2.375 0 3.828125 1.484375q1.453125 1.484375 1.453125 4.015625q0 2.265625 -0.921875 4.21875q-0.90625 1.9375 -2.59375 2.984375q-1.6875 1.03125 -3.546875 1.03125q-1.53125 0 -2.796875 -0.65625q-1.25 -0.65625 -1.921875 -1.84375q-0.65625 -1.203125 -0.65625 -2.78125zm2.234375 -0.21875q0 1.859375 0.890625 2.8125q0.890625 0.953125 2.265625 0.953125q0.71875 0 1.421875 -0.28125q0.703125 -0.296875 1.3125 -0.890625q0.609375 -0.59375 1.03125 -1.34375q0.4375 -0.765625 0.6875 -1.65625q0.390625 -1.21875 0.390625 -2.34375q0 -1.78125 -0.90625 -2.765625q-0.890625 -0.984375 -2.25 -0.984375q-1.046875 0 -1.921875 0.5q-0.859375 0.5 -1.5625 1.46875q-0.703125 0.96875 -1.03125 2.25q-0.328125 1.28125 -0.328125 2.28125zm16.695679 3.390625l-0.375 1.828125q-0.8125 0.203125 -1.5625 0.203125q-1.328125 0 -2.125 -0.65625q-0.59375 -0.484375 -0.59375 -1.34375q0 -0.4375 0.328125 -1.984375l1.59375 -7.640625l-1.765625 0l0.34375 -1.734375l1.78125 0l0.671875 -3.21875l2.5625 -1.546875l-1.0 4.765625l2.203125 0l-0.375 1.734375l-2.1875 0l-1.515625 7.265625q-0.296875 1.375 -0.296875 1.65625q0 0.390625 0.234375 0.609375q0.234375 0.203125 0.75 0.203125q0.734375 0 1.328125 -0.140625zm2.0057373 -2.671875l2.25 -0.140625q0 0.96875 0.296875 1.65625q0.296875 0.671875 1.09375 1.109375q0.796875 0.421875 1.859375 0.421875q1.484375 0 2.21875 -0.59375q0.75 -0.59375 0.75 -1.390625q0 -0.578125 -0.453125 -1.109375q-0.453125 -0.515625 -2.234375 -1.265625q-1.765625 -0.765625 -2.265625 -1.078125q-0.828125 -0.515625 -1.25 -1.1875q-0.421875 -0.6875 -0.421875 -1.578125q0 -1.5625 1.234375 -2.671875q1.25 -1.125 3.46875 -1.125q2.46875 0 3.765625 1.15625q1.296875 1.140625 1.34375 3.0l-2.1875 0.15625q-0.046875 -1.1875 -0.84375 -1.875q-0.796875 -0.703125 -2.234375 -0.703125q-1.171875 0 -1.8125 0.53125q-0.640625 0.53125 -0.640625 1.15625q0 0.609375 0.5625 1.09375q0.359375 0.3125 1.90625 0.984375q2.578125 1.109375 3.25 1.75q1.0625 1.03125 1.0625 2.5q0 0.984375 -0.609375 1.921875q-0.59375 0.9375 -1.828125 1.5q-1.234375 0.5625 -2.890625 0.5625q-2.28125 0 -3.875 -1.125q-1.59375 -1.125 -1.515625 -3.65625zm13.0703125 4.484375l0.53125 -2.53125l2.546875 0l-0.546875 2.53125l-2.53125 0zm11.661987 -1.8125l-0.375 1.828125q-0.8125 0.203125 -1.5625 0.203125q-1.328125 0 -2.125 -0.65625q-0.59375 -0.484375 -0.59375 -1.34375q0 -0.4375 0.328125 -1.984375l1.59375 -7.640625l-1.765625 0l0.34375 -1.734375l1.78125 0l0.671875 -3.21875l2.5625 -1.546875l-1.0 4.765625l2.203125 0l-0.375 1.734375l-2.1875 0l-1.515625 7.265625q-0.296875 1.375 -0.296875 1.65625q0 0.390625 0.234375 0.609375q0.234375 0.203125 0.75 0.203125q0.734375 0 1.328125 -0.140625zm0.92755127 1.8125l5.703125 -6.671875l-3.265625 -6.46875l2.46875 0l1.109375 2.34375q0.625 1.3125 1.109375 2.515625l3.796875 -4.859375l2.71875 0l-5.515625 6.640625l3.328125 6.5l-2.484375 0l-1.3125 -2.671875q-0.421875 -0.859375 -0.953125 -2.109375l-3.90625 4.78125l-2.796875 0zm18.773438 -1.8125l-0.375 1.828125q-0.8125 0.203125 -1.5625 0.203125q-1.328125 0 -2.125 -0.65625q-0.59375 -0.484375 -0.59375 -1.34375q0 -0.4375 0.328125 -1.984375l1.59375 -7.640625l-1.765625 0l0.34375 -1.734375l1.78125 0l0.671875 -3.21875l2.5625 -1.546875l-1.0 4.765625l2.203125 0l-0.375 1.734375l-2.1875 0l-1.515625 7.265625q-0.296875 1.375 -0.296875 1.65625q0 0.390625 0.234375 0.609375q0.234375 0.203125 0.75 0.203125q0.734375 0 1.328125 -0.140625z" fill-rule="nonzero"/><path fill="#ffffff" d="m698.8436 225.17253l-1.59375 0q3.703125 -5.9375 3.703125 -11.875q0 -2.328125 -0.53125 -4.625q-0.421875 -1.84375 -1.171875 -3.5625q-0.484375 -1.109375 -2.0 -3.703125l1.59375 0q2.328125 3.109375 3.4375 6.234375q0.953125 2.6875 0.953125 5.640625q0 3.328125 -1.28125 6.453125q-1.28125 3.109375 -3.109375 5.4375z" fill-rule="nonzero"/></g></svg>